<svg width="100" height="100" viewBox="0 0 100 100" fill="none" xmlns="http://www.w3.org/2000/svg">
<circle cx="50" cy="50" r="50" fill="#9B1717"/>
<path d="M40.5058 42.2H34.7458V37.88H40.5058V35.288C40.5058 29.848 42.0418 25.72 45.1138 22.904C48.2498 20.088 52.9538 18.68 59.2258 18.68C61.0178 18.68 62.7138 18.84 64.3138 19.16C65.9778 19.416 67.1938 19.8 67.9618 20.312C69.6258 21.272 70.8738 22.648 71.7058 24.44L67.8658 27.8C66.9058 26.264 65.7218 25.08 64.3138 24.248C62.9058 23.416 61.3698 23 59.7058 23C57.4658 23 55.7698 23.928 54.6178 25.784C53.5298 27.64 52.9858 30.808 52.9858 35.288V37.88H65.4658V42.2H52.9858V83H40.5058V42.2Z" fill="white"/>
</svg>
