<svg width="32" height="32" viewBox="0 0 32 32" fill="none" xmlns="http://www.w3.org/2000/svg">
<rect width="32" height="32" fill="#9B1717"/>
<g filter="url(#filter0_d_40_12)">
<path d="M7.11417 13.474C6.81494 13.474 6.56143 13.4096 6.35365 13.2811C6.15 13.1485 5.99624 12.9717 5.89235 12.7507C5.79261 12.5256 5.74274 12.2745 5.74274 11.9972C5.74274 11.72 5.79261 11.4708 5.89235 11.2498C5.99624 11.0248 6.15 10.848 6.35365 10.7194C6.56143 10.5868 6.81494 10.5205 7.11417 10.5205C7.5713 10.5205 7.8726 10.5908 8.018 10.7315C8.08872 10.7998 8.13235 10.8842 8.14891 10.9846C8.16567 11.0811 8.17385 11.2579 8.17385 11.515H8.04917C8.03261 11.2659 7.95156 11.079 7.80611 10.9545C7.66065 10.8259 7.47156 10.7616 7.23884 10.7616C6.93962 10.7616 6.71312 10.8761 6.55936 11.1052C6.40975 11.3342 6.33494 11.6316 6.33494 11.9972C6.33494 12.3629 6.40975 12.6602 6.55936 12.8893C6.71312 13.1183 6.93962 13.2329 7.23884 13.2329C7.45079 13.2329 7.62534 13.1947 7.76248 13.1183C7.89962 13.038 8.02638 12.9154 8.14268 12.7507L8.26735 12.8411C8.13021 13.0661 7.96819 13.2288 7.78118 13.3293C7.59417 13.4257 7.37182 13.474 7.11417 13.474ZM9.74729 10.8219H9.4356C9.24021 10.8219 9.08242 10.8761 8.96184 10.9846C8.84125 11.0891 8.78106 11.2358 8.78106 11.4246H8.65638V11.063C8.65638 10.7415 8.81222 10.5808 9.12391 10.5808H11.3369V10.8219H10.3083V13.4137H9.74729V10.8219ZM11.9642 11.3041C11.9642 11.0991 11.9351 10.9485 11.8769 10.852C11.8188 10.7515 11.7024 10.7013 11.5278 10.7013H11.4343V10.5808H11.9642C12.1181 10.5808 12.2322 10.6009 12.307 10.6411C12.3861 10.6772 12.4422 10.7455 12.4753 10.846C12.5087 10.9464 12.5252 11.0991 12.5252 11.3041V12.8712L13.8343 10.5808H14.3953V13.4137H13.8343V11.1233L12.5252 13.4137H11.9642V11.3041ZM18.7831 13.5342C18.4132 13.5342 18.1492 13.4478 17.9913 13.275C17.8335 13.0982 17.7546 12.8431 17.7546 12.5096V11.2137L16.726 13.4137H16.6013L15.5416 11.1534V13.4137H15.2922V10.5808H15.8844L16.8195 12.5698L17.7546 10.5808H18.3156V12.5096C18.3156 12.7466 18.3592 12.9576 18.4465 13.1424C18.5379 13.3233 18.6501 13.4137 18.7831 13.4137V13.5342ZM20.4813 13.474C20.1986 13.474 19.9596 13.4096 19.7644 13.2811C19.569 13.1485 19.4215 12.9717 19.3218 12.7507C19.222 12.5256 19.1722 12.2745 19.1722 11.9972C19.1722 11.724 19.222 11.4748 19.3218 11.2498C19.4215 11.0248 19.5649 10.848 19.7519 10.7194C19.943 10.5868 20.1653 10.5205 20.4189 10.5205C20.8385 10.5205 21.1502 10.635 21.354 10.8641C21.5616 11.0891 21.6657 11.4166 21.6657 11.8465L21.6532 12.0876H19.7644C19.7644 12.4252 19.8392 12.7004 19.9888 12.9134C20.1384 13.1264 20.3441 13.2329 20.6059 13.2329C20.8011 13.2329 20.9653 13.1927 21.0984 13.1123C21.2355 13.0319 21.3622 12.9114 21.4787 12.7507L21.6033 12.8411C21.4662 13.0621 21.3061 13.2228 21.1233 13.3233C20.9404 13.4237 20.7263 13.474 20.4813 13.474ZM21.0735 11.8465C21.0735 11.4929 21.0193 11.2237 20.9114 11.0389C20.8033 10.854 20.639 10.7616 20.4189 10.7616C20.2942 10.7616 20.182 10.8098 20.0823 10.9063C19.9825 10.9987 19.9035 11.1273 19.8454 11.292C19.7913 11.4568 19.7644 11.6416 19.7644 11.8465H21.0735ZM22.4716 11.3041C22.4716 11.0991 22.4424 10.9485 22.3843 10.852C22.3261 10.7515 22.2098 10.7013 22.0352 10.7013H21.9417V10.5808H22.4716C22.6253 10.5808 22.7396 10.6009 22.8144 10.6411C22.8933 10.6772 22.9494 10.7455 22.9827 10.846C23.0159 10.9464 23.0326 11.0991 23.0326 11.3041V13.1726H23.9988V10.5808H24.5599V13.1726H25.5261V10.5808H26.0872V13.4137H22.4716V11.3041Z" fill="white"/>
</g>
<path d="M3.1473 9.71647C2.95614 9.71647 2.80236 9.66424 2.686 9.55976C2.57795 9.44725 2.52393 9.29858 2.52393 9.11373C2.52393 8.92889 2.57795 8.78424 2.686 8.67975C2.80236 8.56725 2.95614 8.51099 3.1473 8.51099C3.33847 8.51099 3.48808 8.56725 3.59613 8.67975C3.71249 8.78424 3.77068 8.92889 3.77068 9.11373C3.77068 9.29858 3.71249 9.44725 3.59613 9.55976C3.48808 9.66424 3.33847 9.71647 3.1473 9.71647ZM5.0673 9.71647C4.87614 9.71647 4.72236 9.66424 4.606 9.55976C4.49795 9.44725 4.44393 9.29858 4.44393 9.11373C4.44393 8.92889 4.49795 8.78424 4.606 8.67975C4.72236 8.56725 4.87614 8.51099 5.0673 8.51099C5.25846 8.51099 5.40808 8.56725 5.51613 8.67975C5.63249 8.78424 5.69068 8.92889 5.69068 9.11373C5.69068 9.29858 5.63249 9.44725 5.51613 9.55976C5.40808 9.66424 5.25846 9.71647 5.0673 9.71647ZM4.66834 18.3358C4.3608 18.3358 4.12809 18.2997 3.97016 18.2273C3.82055 18.1469 3.71249 18.0062 3.646 17.8054C3.57952 17.6044 3.54626 17.299 3.54626 16.8891V10.3795H4.66834V16.8891C4.66834 17.299 4.72653 17.6044 4.84289 17.8054C4.95924 17.9983 5.19198 18.0947 5.54107 18.0947H5.79042V18.3358H4.66834Z" fill="white"/>
<path d="M28.8527 9.71647C29.0438 9.71647 29.1977 9.66424 29.314 9.55976C29.4221 9.44725 29.4761 9.29858 29.4761 9.11373C29.4761 8.92889 29.4221 8.78424 29.314 8.67975C29.1977 8.56725 29.0438 8.51099 28.8527 8.51099C28.6616 8.51099 28.512 8.56725 28.4039 8.67975C28.2876 8.78424 28.2293 8.92889 28.2293 9.11373C28.2293 9.29858 28.2876 9.44725 28.4039 9.55976C28.512 9.66424 28.6616 9.71647 28.8527 9.71647ZM26.9327 9.71647C27.1238 9.71647 27.2777 9.66424 27.394 9.55976C27.5021 9.44725 27.5561 9.29858 27.5561 9.11373C27.5561 8.92889 27.5021 8.78424 27.394 8.67975C27.2777 8.56725 27.1238 8.51099 26.9327 8.51099C26.7416 8.51099 26.592 8.56725 26.4839 8.67975C26.3676 8.78424 26.3093 8.92889 26.3093 9.11373C26.3093 9.29858 26.3676 9.44725 26.4839 9.55976C26.592 9.66424 26.7416 9.71647 26.9327 9.71647ZM27.3317 18.3358C27.6393 18.3358 27.8719 18.2997 28.0299 18.2273C28.1795 18.1469 28.2876 18.0062 28.354 17.8054C28.4204 17.6044 28.4538 17.299 28.4538 16.8891V10.3795H27.3317V16.8891C27.3317 17.299 27.2734 17.6044 27.1571 17.8054C27.0408 17.9983 26.808 18.0947 26.4589 18.0947H26.2096V18.3358H27.3317Z" fill="white"/>
<path d="M5.6504 17.3577C5.56599 17.3577 5.47312 17.3414 5.37183 17.3087V17.2108C5.4765 17.201 5.56429 17.1618 5.6352 17.0932C5.70611 17.0247 5.77872 16.9333 5.853 16.819L6.15689 16.3048C5.99481 16.2787 5.85636 16.2101 5.74157 16.0991C5.63014 15.9848 5.57442 15.8412 5.57442 15.6681C5.57442 15.2274 5.91208 15.007 6.58741 15.007H7.77767V15.1049C7.63585 15.1049 7.54131 15.1457 7.49403 15.2274C7.44675 15.3057 7.42312 15.4281 7.42312 15.5947V17.3087H6.96728V16.3292H6.57221L6.26832 16.9169C6.18728 17.0704 6.09781 17.183 5.99988 17.2548C5.90534 17.3234 5.78885 17.3577 5.6504 17.3577ZM6.63806 16.1578C6.68871 16.1578 6.74612 16.1529 6.81027 16.1432C6.87442 16.1334 6.92676 16.1219 6.96728 16.1089V15.2274C6.92676 15.2143 6.87442 15.2029 6.81027 15.1931C6.74612 15.1833 6.68871 15.1784 6.63806 15.1784C6.24975 15.1784 6.05559 15.3416 6.05559 15.6681C6.05559 15.9946 6.24975 16.1578 6.63806 16.1578ZM10.4761 17.3577C10.233 17.3577 10.0271 17.3054 9.85819 17.201C9.6928 17.0932 9.56773 16.9496 9.48338 16.77C9.40235 16.5872 9.36183 16.3831 9.36183 16.1578C9.36183 15.9326 9.40235 15.7302 9.48338 15.5506C9.56773 15.3678 9.6928 15.2241 9.85819 15.1196C10.0271 15.0119 10.233 14.958 10.4761 14.958C10.8476 14.958 11.0923 15.0152 11.2105 15.1294C11.268 15.1849 11.3034 15.2535 11.3169 15.3351C11.3303 15.4135 11.3372 15.5571 11.3372 15.7661H11.2359C11.2224 15.5637 11.1566 15.4118 11.0383 15.3106C10.9201 15.2062 10.7666 15.1539 10.5774 15.1539C10.3343 15.1539 10.1502 15.2469 10.0253 15.433C9.90377 15.6191 9.84299 15.8607 9.84299 16.1578C9.84299 16.455 9.90377 16.6965 10.0253 16.8826C10.1502 17.0687 10.3343 17.1618 10.5774 17.1618C10.7496 17.1618 10.8914 17.1308 11.0029 17.0687C11.1143 17.0035 11.2173 16.9039 11.3118 16.77L11.4131 16.8435C11.3017 17.0263 11.17 17.1585 11.0181 17.2401C10.8661 17.3185 10.6855 17.3577 10.4761 17.3577ZM13.8057 17.3577C13.5322 17.3577 13.2875 17.2271 13.0713 16.9659L12.4888 16.2558V17.3087H12.033V15.5947C12.033 15.4281 12.0094 15.3057 11.9621 15.2274C11.9149 15.1457 11.8203 15.1049 11.6785 15.1049H11.5772V15.007H12.033C12.1581 15.007 12.2508 15.0233 12.3116 15.056C12.3759 15.0853 12.4214 15.1408 12.4483 15.2225C12.4754 15.3041 12.4888 15.4281 12.4888 15.5947V16.1823L13.122 15.3253C13.1997 15.2208 13.2891 15.1425 13.3904 15.0902C13.4952 15.0347 13.6251 15.007 13.7804 15.007H13.907V15.1294C13.7112 15.1294 13.5593 15.2029 13.4512 15.3498L12.894 16.1089L13.4765 16.819C13.5712 16.9365 13.6639 17.0279 13.7551 17.0932C13.8497 17.1585 13.951 17.1993 14.059 17.2157V17.3087C13.9847 17.3414 13.9004 17.3577 13.8057 17.3577ZM15.0318 17.3577C14.9237 17.3577 14.814 17.3365 14.7026 17.294C14.5912 17.2483 14.4949 17.1749 14.4139 17.0736C14.3362 16.9724 14.2974 16.8386 14.2974 16.6721C14.2974 16.4239 14.4157 16.2476 14.652 16.1432C14.8918 16.0387 15.204 15.9864 15.589 15.9864H15.7409C15.7409 15.6665 15.6953 15.4477 15.6042 15.3302C15.513 15.2127 15.3813 15.1539 15.2091 15.1539C15.0572 15.1539 14.9356 15.1849 14.8444 15.2469C14.7533 15.309 14.6892 15.4167 14.652 15.5702H14.424C14.424 15.4592 14.4309 15.3727 14.4443 15.3106C14.4577 15.2453 14.4932 15.1849 14.5507 15.1294C14.6114 15.0706 14.711 15.0282 14.8495 15.0021C14.9913 14.9727 15.145 14.958 15.3104 14.958C15.5839 14.958 15.7999 15.0298 15.9587 15.1735C16.1175 15.3139 16.1968 15.5849 16.1968 15.9864V17.3087H15.9435L15.7662 17.0883H15.7409C15.6801 17.1634 15.5907 17.2271 15.4725 17.2793C15.3542 17.3316 15.2073 17.3577 15.0318 17.3577ZM15.2597 17.1373C15.3712 17.1373 15.4641 17.1112 15.5383 17.0589C15.6125 17.0067 15.6801 16.9349 15.7409 16.8435V16.1823H15.589C15.339 16.1823 15.1415 16.228 14.9964 16.3195C14.8512 16.4076 14.7786 16.5251 14.7786 16.6721C14.7786 16.8223 14.8242 16.9382 14.9153 17.0198C15.0098 17.0981 15.1247 17.1373 15.2597 17.1373ZM17.6072 17.3577C17.3944 17.3577 17.2172 17.3234 17.0753 17.2548C16.9368 17.1863 16.8186 17.09 16.7208 16.9659L16.8221 16.8924C16.9064 16.9741 16.9994 17.0394 17.1007 17.0883C17.2053 17.1373 17.3403 17.1618 17.5059 17.1618C17.9278 17.1618 18.139 17.0067 18.139 16.6965C18.139 16.3864 17.9025 16.2313 17.4299 16.2313H17.202V16.0354H17.4299C17.6358 16.0354 17.7928 15.9995 17.9009 15.9277C18.0088 15.8526 18.063 15.7416 18.063 15.5947C18.063 15.4543 18.0157 15.3465 17.9212 15.2714C17.8265 15.1931 17.7049 15.1539 17.5565 15.1539C17.3707 15.1539 17.2172 15.2013 17.0956 15.2959C16.974 15.3873 16.9082 15.5114 16.8981 15.6681H16.7968C16.7968 15.5081 16.8034 15.3922 16.817 15.3204C16.8305 15.2486 16.8659 15.1849 16.9234 15.1294C17.0414 15.0152 17.2779 14.958 17.6325 14.958C17.8923 14.958 18.1086 15.0086 18.2808 15.1098C18.4563 15.2078 18.5442 15.3694 18.5442 15.5947C18.5442 15.7351 18.4986 15.851 18.4074 15.9424C18.3196 16.0305 18.1962 16.0942 18.0377 16.1334C18.2233 16.1693 18.3669 16.2362 18.4682 16.3341C18.5695 16.4321 18.6201 16.5529 18.6201 16.6965C18.6201 17.1373 18.2823 17.3577 17.6072 17.3577ZM19.7753 17.3577C19.6672 17.3577 19.5575 17.3365 19.4461 17.294C19.3347 17.2483 19.2384 17.1749 19.1574 17.0736C19.0797 16.9724 19.0409 16.8386 19.0409 16.6721C19.0409 16.4239 19.159 16.2476 19.3955 16.1432C19.6351 16.0387 19.9475 15.9864 20.3325 15.9864H20.4844C20.4844 15.6665 20.4388 15.4477 20.3477 15.3302C20.2565 15.2127 20.1248 15.1539 19.9526 15.1539C19.8007 15.1539 19.6791 15.1849 19.5879 15.2469C19.4968 15.309 19.4325 15.4167 19.3955 15.5702H19.1675C19.1675 15.4592 19.1742 15.3727 19.1878 15.3106C19.2012 15.2453 19.2367 15.1849 19.2942 15.1294C19.3549 15.0706 19.4545 15.0282 19.593 15.0021C19.7348 14.9727 19.8883 14.958 20.0539 14.958C20.3274 14.958 20.5435 15.0298 20.7022 15.1735C20.8608 15.3139 20.9403 15.5849 20.9403 15.9864V17.3087H20.687L20.5097 17.0883H20.4844C20.4236 17.1634 20.334 17.2271 20.216 17.2793C20.0977 17.3316 19.9509 17.3577 19.7753 17.3577ZM20.0033 17.1373C20.1147 17.1373 20.2074 17.1112 20.2818 17.0589C20.356 17.0067 20.4236 16.9349 20.4844 16.8435V16.1823H20.3325C20.0825 16.1823 19.885 16.228 19.7399 16.3195C19.5946 16.4076 19.5221 16.5251 19.5221 16.6721C19.5221 16.8223 19.5677 16.9382 19.6588 17.0198C19.7533 17.0981 19.8681 17.1373 20.0033 17.1373ZM21.5755 17.3577C21.5486 17.3577 21.5064 17.3528 21.4489 17.343C21.3949 17.3332 21.3544 17.3234 21.3273 17.3136V17.1912C21.5233 17.1912 21.6819 17.0785 21.8035 16.8533C21.925 16.628 21.9858 16.2085 21.9858 15.5947C21.9858 15.4281 21.9605 15.3057 21.9098 15.2274C21.8627 15.1457 21.768 15.1049 21.6262 15.1049V15.007H23.6825V17.3087H23.2267V15.2029H22.3353V15.5947C22.3353 16.264 22.2644 16.7259 22.1225 16.9806C21.9842 17.232 21.8019 17.3577 21.5755 17.3577ZM24.9788 17.3577C24.8707 17.3577 24.761 17.3365 24.6496 17.294C24.5381 17.2483 24.4419 17.1749 24.3609 17.0736C24.2831 16.9724 24.2444 16.8386 24.2444 16.6721C24.2444 16.4239 24.3624 16.2476 24.5989 16.1432C24.8385 16.0387 25.151 15.9864 25.5359 15.9864H25.6879C25.6879 15.6665 25.6423 15.4477 25.5511 15.3302C25.4599 15.2127 25.3283 15.1539 25.1561 15.1539C25.0041 15.1539 24.8825 15.1849 24.7914 15.2469C24.7002 15.309 24.6359 15.4167 24.5989 15.5702H24.371C24.371 15.4592 24.3776 15.3727 24.3912 15.3106C24.4047 15.2453 24.4401 15.1849 24.4976 15.1294C24.5584 15.0706 24.6579 15.0282 24.7964 15.0021C24.9383 14.9727 25.0918 14.958 25.2573 14.958C25.5309 14.958 25.7469 15.0298 25.9057 15.1735C26.0642 15.3139 26.1437 15.5849 26.1437 15.9864V17.3087H25.8905L25.7132 17.0883H25.6879C25.6271 17.1634 25.5375 17.2271 25.4194 17.2793C25.3012 17.3316 25.1543 17.3577 24.9788 17.3577ZM25.2067 17.1373C25.3181 17.1373 25.4109 17.1112 25.4853 17.0589C25.5595 17.0067 25.6271 16.9349 25.6879 16.8435V16.1823H25.5359C25.286 16.1823 25.0885 16.228 24.9433 16.3195C24.798 16.4076 24.7255 16.5251 24.7255 16.6721C24.7255 16.8223 24.7711 16.9382 24.8623 17.0198C24.9568 17.0981 25.0715 17.1373 25.2067 17.1373Z" fill="white"/>
<path d="M13.2836 22.825C13.2527 22.825 13.2248 22.8179 13.1997 22.8036C13.1757 22.7902 13.1551 22.7659 13.1381 22.7307C13.1221 22.6953 13.1095 22.648 13.1003 22.5883C13.0923 22.5288 13.0884 22.453 13.0884 22.3615C13.0884 22.1628 13.0884 21.9901 13.0884 21.8433C13.0884 21.6977 13.0884 21.5713 13.0884 21.4642C13.0896 21.3572 13.09 21.2662 13.09 21.191C13.09 21.1161 13.09 21.0498 13.09 20.9923C13.0912 20.9339 13.0918 20.881 13.0918 20.8335C13.0918 20.7849 13.0918 20.7347 13.0918 20.6829C13.0918 20.599 13.0953 20.5118 13.1021 20.4212C13.1089 20.3308 13.1192 20.2419 13.1329 20.1547C13.1477 20.0675 13.1666 19.9848 13.1893 19.9064C13.2121 19.8281 13.2396 19.7591 13.2716 19.6994C13.3035 19.6399 13.3407 19.593 13.3828 19.5587C13.4251 19.5235 13.473 19.5058 13.5268 19.5058C13.5472 19.5058 13.5679 19.5124 13.5883 19.5256C13.609 19.5378 13.6271 19.557 13.6431 19.5836C13.6602 19.609 13.6734 19.641 13.6826 19.6797C13.6927 19.7183 13.698 19.7635 13.698 19.8153C13.698 19.9059 13.6877 19.998 13.667 20.0918C13.6477 20.1856 13.622 20.2779 13.5901 20.3683C13.5581 20.4587 13.5227 20.5454 13.4839 20.6282C13.4451 20.7109 13.4073 20.7866 13.3709 20.855C13.3343 20.9234 13.3008 20.9825 13.2698 21.0321C13.239 21.0818 13.2156 21.1181 13.1997 21.1413C13.1997 21.1447 13.1991 21.1492 13.1979 21.1547C13.1979 21.159 13.1979 21.1667 13.1979 21.1779C13.1979 21.1878 13.1979 21.2022 13.1979 21.2208C13.1979 21.2385 13.1985 21.2628 13.1997 21.2937C13.2032 21.3257 13.2106 21.3543 13.2219 21.3798C13.2345 21.4041 13.2493 21.425 13.2665 21.4427C13.2848 21.4593 13.3041 21.4719 13.3247 21.4807C13.3464 21.4896 13.368 21.4941 13.3898 21.4941C13.4354 21.4941 13.4753 21.4853 13.5096 21.4675C13.5449 21.4487 13.5764 21.4255 13.6037 21.398C13.6312 21.3692 13.6551 21.3378 13.6756 21.3037C13.6962 21.2683 13.7151 21.2342 13.7321 21.201L13.7442 21.2076C13.7338 21.233 13.719 21.2662 13.6995 21.3069C13.6814 21.3478 13.6575 21.3875 13.6277 21.4261C13.5992 21.4647 13.5643 21.4984 13.5232 21.5271C13.4821 21.5548 13.4342 21.5685 13.3795 21.5685C13.3635 21.5685 13.3458 21.5674 13.3263 21.5651C13.3082 21.5619 13.2893 21.5548 13.2698 21.5436C13.2984 21.6132 13.3247 21.6811 13.3487 21.7473C13.3727 21.8147 13.3931 21.8836 13.4103 21.9543C13.4286 22.0249 13.4422 22.0989 13.4514 22.1762C13.4617 22.2545 13.4668 22.34 13.4668 22.4327C13.4668 22.4913 13.4617 22.5442 13.4514 22.5917C13.4422 22.6403 13.4297 22.6815 13.4138 22.7158C13.3978 22.751 13.3783 22.7781 13.3555 22.797C13.3327 22.8156 13.3088 22.825 13.2836 22.825ZM13.2065 20.6729C13.2065 20.7049 13.2059 20.7392 13.2047 20.7755C13.2047 20.8119 13.2042 20.8479 13.2032 20.8831C13.202 20.9174 13.2008 20.9505 13.1997 20.9825C13.1997 21.0146 13.1997 21.0421 13.1997 21.0652C13.2192 21.03 13.2425 20.9863 13.2698 20.9345C13.2984 20.8825 13.3275 20.8258 13.3573 20.764C13.388 20.7011 13.4177 20.6337 13.4463 20.5619C13.4759 20.4902 13.5022 20.4169 13.525 20.3417C13.549 20.2668 13.5679 20.1907 13.5815 20.1133C13.5963 20.036 13.6037 19.9605 13.6037 19.8865C13.6037 19.8467 13.6016 19.8093 13.5969 19.774C13.5934 19.7375 13.586 19.706 13.5747 19.6797C13.5643 19.6531 13.5495 19.6322 13.5301 19.6168C13.5119 19.6002 13.4874 19.5919 13.4564 19.5919C13.4245 19.5919 13.396 19.6062 13.3709 19.6348C13.3458 19.6625 13.3242 19.7017 13.3058 19.7524C13.2875 19.8021 13.2721 19.8612 13.2597 19.9296C13.247 19.998 13.2367 20.0726 13.2287 20.153C13.2207 20.2325 13.2151 20.3171 13.2118 20.4063C13.2082 20.4947 13.2065 20.5836 13.2065 20.6729ZM13.3966 22.3747C13.3966 22.2875 13.3908 22.2042 13.3795 22.1247C13.368 22.0452 13.3532 21.9686 13.3349 21.8947C13.3168 21.8219 13.2955 21.7507 13.2716 21.6811C13.2476 21.6126 13.2236 21.5453 13.1997 21.479V21.7606C13.1997 21.8399 13.1991 21.9194 13.1979 21.9989C13.1979 22.0795 13.1985 22.1567 13.1997 22.2308C13.2008 22.3046 13.2026 22.3735 13.2047 22.4376C13.2082 22.5016 13.2127 22.5574 13.2186 22.6049C13.2242 22.6523 13.2322 22.6892 13.2425 22.7158C13.2538 22.7433 13.2677 22.7572 13.2836 22.7572C13.3008 22.7572 13.3162 22.7505 13.3298 22.7373C13.3446 22.7252 13.3567 22.7041 13.3658 22.6744C13.376 22.6457 13.3834 22.6065 13.3881 22.5568C13.3937 22.5082 13.3966 22.4476 13.3966 22.3747ZM13.9752 21.4941C14.0027 21.4941 14.0295 21.4885 14.0558 21.4775C14.0819 21.4653 14.1053 21.4482 14.126 21.4261C14.1464 21.4029 14.1624 21.3749 14.1739 21.3417C14.1864 21.3086 14.1928 21.27 14.1928 21.2259C14.1928 21.1893 14.1881 21.1553 14.179 21.1232C14.1698 21.0901 14.1562 21.0615 14.1379 21.0372C14.1209 21.0129 14.0979 20.9935 14.0695 20.9791C14.042 20.9648 14.0095 20.9577 13.9719 20.9577C13.9456 20.9577 13.9193 20.9626 13.8932 20.9725C13.8669 20.9814 13.8435 20.9963 13.8229 21.0172C13.8024 21.0372 13.7858 21.063 13.7732 21.095C13.7607 21.1259 13.7545 21.1635 13.7545 21.2076C13.7545 21.243 13.759 21.2777 13.7681 21.312C13.7773 21.3451 13.7903 21.3754 13.8075 21.4029C13.8258 21.4306 13.8486 21.4527 13.876 21.4692C13.9045 21.4858 13.9376 21.4941 13.9752 21.4941ZM13.9154 21.5785C13.84 21.5785 13.7784 21.5548 13.7305 21.5073C13.6826 21.4587 13.6584 21.3886 13.6584 21.2971C13.6584 21.2353 13.6705 21.1784 13.6945 21.1264C13.7184 21.0735 13.7492 21.0283 13.787 20.9908C13.8258 20.9522 13.8686 20.9223 13.9154 20.9013C13.9621 20.8804 14.0077 20.8699 14.0523 20.8699C14.1242 20.8699 14.1819 20.8936 14.2253 20.9411C14.2686 20.9886 14.2904 21.0586 14.2904 21.1513C14.2904 21.2131 14.2789 21.27 14.2561 21.322C14.2345 21.3737 14.2053 21.419 14.1688 21.4576C14.1334 21.4951 14.0934 21.525 14.0488 21.547C14.0044 21.5679 13.9598 21.5785 13.9154 21.5785ZM14.7492 21.4941C14.7766 21.4941 14.8033 21.4885 14.8296 21.4775C14.8559 21.4653 14.8793 21.4482 14.8999 21.4261C14.9204 21.4029 14.9364 21.3749 14.9479 21.3417C14.9603 21.3086 14.9666 21.27 14.9666 21.2259C14.9666 21.1893 14.9621 21.1553 14.9529 21.1232C14.9438 21.0901 14.9301 21.0615 14.9118 21.0372C14.8947 21.0129 14.8719 20.9935 14.8432 20.9791C14.816 20.9648 14.7834 20.9577 14.7458 20.9577C14.7195 20.9577 14.6932 20.9626 14.6669 20.9725C14.6406 20.9814 14.6173 20.9963 14.5968 21.0172C14.5762 21.0372 14.5596 21.063 14.5471 21.095C14.5347 21.1259 14.5282 21.1635 14.5282 21.2076C14.5282 21.243 14.5329 21.2777 14.5421 21.312C14.551 21.3451 14.5643 21.3754 14.5814 21.4029C14.5997 21.4306 14.6225 21.4527 14.6498 21.4692C14.6784 21.4858 14.7116 21.4941 14.7492 21.4941ZM14.6892 21.5785C14.614 21.5785 14.5522 21.5548 14.5043 21.5073C14.4564 21.4587 14.4324 21.3886 14.4324 21.2971C14.4324 21.2353 14.4445 21.1784 14.4684 21.1264C14.4924 21.0735 14.5232 21.0283 14.5608 20.9908C14.5997 20.9522 14.6424 20.9223 14.6892 20.9013C14.7361 20.8804 14.7817 20.8699 14.8263 20.8699C14.8982 20.8699 14.9558 20.8936 14.9991 20.9411C15.0425 20.9886 15.0642 21.0586 15.0642 21.1513C15.0642 21.2131 15.0529 21.27 15.0301 21.322C15.0082 21.3737 14.9792 21.419 14.9426 21.4576C14.9073 21.4951 14.8674 21.525 14.8228 21.547C14.7784 21.5679 14.7338 21.5785 14.6892 21.5785ZM15.6772 20.8831C15.6737 20.8511 15.6714 20.8181 15.6704 20.7838C15.6704 20.7495 15.6704 20.7137 15.6704 20.6763C15.6704 20.5968 15.6719 20.5135 15.6755 20.4263C15.6799 20.338 15.6864 20.2513 15.6943 20.1664C15.7035 20.0814 15.7142 20.0002 15.7269 19.923C15.7394 19.8458 15.7547 19.7778 15.7731 19.7194C15.7914 19.6608 15.8118 19.6145 15.8346 19.5802C15.8576 19.545 15.8831 19.5273 15.9118 19.5273C15.9552 19.5273 15.9871 19.5642 16.0076 19.6382C16.0282 19.7122 16.0384 19.8264 16.0384 19.9808C16.0384 20.0714 16.0321 20.173 16.0197 20.2856C16.0082 20.3969 15.9877 20.5113 15.9579 20.6282C15.9328 20.7286 15.9088 20.817 15.886 20.8931C15.8644 20.9682 15.8438 21.0338 15.8245 21.0901C15.8346 21.143 15.8473 21.1933 15.8621 21.2408C15.8781 21.2882 15.8958 21.3297 15.9151 21.3649C15.9345 21.4003 15.9562 21.4284 15.9801 21.4493C16.0041 21.4692 16.0304 21.479 16.059 21.479C16.083 21.479 16.1069 21.4698 16.1309 21.451C16.1549 21.4321 16.1771 21.4101 16.1977 21.3847C16.2193 21.3594 16.2382 21.3334 16.2542 21.3069C16.2714 21.2805 16.2844 21.259 16.2936 21.2425L16.309 21.2491C16.309 21.2491 16.306 21.2568 16.3004 21.2722C16.2947 21.2877 16.2862 21.3074 16.2747 21.3317C16.2634 21.3549 16.249 21.3803 16.2318 21.408C16.2158 21.4355 16.1977 21.4615 16.1771 21.4858C16.1566 21.509 16.1338 21.5288 16.1087 21.5453C16.0836 21.5608 16.0567 21.5685 16.0282 21.5685C15.9665 21.5685 15.9123 21.5431 15.8656 21.4924C15.8186 21.4416 15.7793 21.3683 15.7473 21.2722C15.7314 21.3074 15.7115 21.3423 15.6875 21.3766C15.6634 21.4095 15.6367 21.4395 15.6069 21.4659C15.5773 21.4913 15.5442 21.5116 15.5077 21.5271C15.4723 21.5425 15.4353 21.5502 15.3963 21.5502C15.3667 21.5502 15.3382 21.5453 15.3108 21.5354C15.2845 21.5256 15.2617 21.5111 15.2422 21.4924C15.2229 21.4724 15.2075 21.4493 15.196 21.4229C15.1845 21.3964 15.1789 21.3666 15.1789 21.3334C15.1789 21.2771 15.1921 21.2225 15.2182 21.1696C15.2445 21.1155 15.28 21.0675 15.3244 21.0255C15.369 20.9825 15.4197 20.9482 15.4768 20.9228C15.535 20.8965 15.5962 20.8831 15.6601 20.8831H15.6772ZM15.881 19.6051C15.8683 19.6051 15.857 19.6211 15.8467 19.6531C15.8375 19.684 15.829 19.7254 15.821 19.7772C15.813 19.8292 15.8062 19.8887 15.8005 19.9562C15.7947 20.0234 15.7896 20.0924 15.7849 20.163C15.7816 20.2336 15.7787 20.3037 15.7766 20.3732C15.7754 20.4418 15.7748 20.5041 15.7748 20.5604C15.7748 20.6254 15.7775 20.6966 15.7834 20.7738C15.789 20.8501 15.7982 20.9262 15.8106 21.0023C15.8278 20.9494 15.8455 20.8899 15.8638 20.8236C15.8821 20.7563 15.8981 20.6845 15.9118 20.6083C15.9266 20.531 15.9386 20.45 15.9476 20.3649C15.9568 20.2788 15.9614 20.1895 15.9614 20.0969C15.9614 20.0206 15.9597 19.9522 15.9562 19.8916C15.9529 19.8307 15.9476 19.7795 15.9408 19.7375C15.9351 19.6945 15.9271 19.662 15.9168 19.6399C15.9067 19.6168 15.8946 19.6051 15.881 19.6051ZM15.4631 21.4493C15.4986 21.4493 15.5299 21.4421 15.5574 21.4278C15.5847 21.4124 15.6092 21.3935 15.6308 21.3715C15.6527 21.3483 15.6714 21.3229 15.6875 21.2954C15.7035 21.2677 15.7177 21.2413 15.7302 21.2159C15.7189 21.1762 15.7097 21.1353 15.7029 21.0935C15.6959 21.0503 15.6897 21.0051 15.684 20.9577C15.6669 20.9511 15.648 20.9477 15.6275 20.9477C15.5681 20.9477 15.5169 20.9571 15.4734 20.9759C15.4312 20.9935 15.3963 21.0166 15.369 21.0454C15.3416 21.0741 15.3211 21.1061 15.3073 21.1413C15.2948 21.1767 15.2886 21.2116 15.2886 21.2457C15.2886 21.3042 15.3045 21.3528 15.3365 21.3915C15.3696 21.4301 15.4117 21.4493 15.4631 21.4493ZM17.1137 21.5851C17.0749 21.5851 17.0401 21.5817 17.0093 21.5751C16.9795 21.5674 16.9538 21.5548 16.9321 21.5371C16.9117 21.5182 16.8957 21.4935 16.8842 21.4627C16.8739 21.4318 16.8688 21.393 16.8688 21.3466C16.8688 21.318 16.8706 21.2717 16.8739 21.2076C16.8774 21.1424 16.8813 21.0603 16.886 20.9609C16.8905 20.8616 16.8945 20.7458 16.8979 20.6133C16.9014 20.4809 16.9031 20.3325 16.9031 20.1681C16.9031 20.0875 16.9025 20.0102 16.9014 19.9362C16.9014 19.8612 16.9008 19.7949 16.8996 19.7375C16.8984 19.6791 16.8973 19.6322 16.8963 19.5968C16.8963 19.5604 16.8963 19.5405 16.8963 19.5373C16.8963 19.5284 16.8973 19.5207 16.8996 19.5141C16.9031 19.5075 16.9093 19.5013 16.9185 19.4958C16.9253 19.4926 16.9333 19.4881 16.9425 19.4826C16.9528 19.476 16.9629 19.4727 16.9732 19.4727C16.9859 19.4727 16.9955 19.476 17.0025 19.4826C17.0093 19.4881 17.0144 19.4987 17.0179 19.5141C17.0223 19.5284 17.0258 19.5538 17.028 19.5902C17.0303 19.6256 17.0315 19.6751 17.0315 19.7392C17.0327 19.8021 17.0332 19.8838 17.0332 19.9842C17.0332 20.0769 17.0309 20.173 17.0264 20.2722C17.0218 20.3717 17.0161 20.4693 17.0093 20.5653C17.0034 20.6614 16.9966 20.7535 16.9886 20.8418C16.9818 20.93 16.975 21.0095 16.9682 21.0801C16.9623 21.1507 16.9573 21.2099 16.9528 21.2573C16.9481 21.3037 16.9458 21.3334 16.9458 21.3466C16.9458 21.3743 16.9516 21.3997 16.9629 21.4229C16.9744 21.4449 16.9892 21.4642 17.0075 21.4807C17.0268 21.4973 17.0486 21.5105 17.0726 21.5205C17.0966 21.5293 17.1211 21.5339 17.1462 21.5339C17.1942 21.5339 17.238 21.5222 17.2781 21.499C17.319 21.4747 17.3545 21.4449 17.3841 21.4095C17.4139 21.3732 17.4367 21.334 17.4527 21.292C17.4698 21.2491 17.4784 21.2087 17.4784 21.1713C17.4784 21.1127 17.463 21.0647 17.4322 21.0272C17.4024 20.9897 17.3619 20.9709 17.3106 20.9709C17.2604 20.9709 17.2175 20.9825 17.1821 21.0057C17.148 21.0289 17.1193 21.0569 17.0966 21.0901C17.0749 21.1232 17.059 21.1579 17.0486 21.1944C17.0383 21.2308 17.0332 21.2628 17.0332 21.2905C17.0332 21.3003 17.0332 21.308 17.0332 21.3137C17.0344 21.318 17.0366 21.3268 17.0401 21.34C17.0434 21.3543 17.043 21.3643 17.0383 21.3698C17.0338 21.3754 17.0274 21.377 17.0194 21.3749C17.0126 21.3726 17.0058 21.366 16.999 21.3549C16.9921 21.344 16.9886 21.3291 16.9886 21.3103C16.9886 21.2639 16.999 21.2148 17.0194 21.163C17.0401 21.111 17.0679 21.0635 17.1034 21.0206C17.1388 20.9765 17.1805 20.94 17.2284 20.9113C17.2775 20.8816 17.3293 20.8667 17.3841 20.8667C17.4139 20.8667 17.4408 20.8733 17.4647 20.8865C17.4887 20.8985 17.5086 20.9162 17.5245 20.9394C17.5417 20.9614 17.5547 20.9874 17.5639 21.0172C17.5731 21.046 17.5777 21.0769 17.5777 21.11C17.5777 21.1662 17.5645 21.2225 17.5382 21.2788C17.5132 21.3351 17.479 21.3858 17.4355 21.4312C17.3932 21.4764 17.3442 21.5133 17.2882 21.542C17.2323 21.5708 17.1741 21.5851 17.1137 21.5851ZM18.3721 21.2391C18.3698 21.2468 18.3606 21.2677 18.3447 21.302C18.3299 21.3351 18.3088 21.3709 18.2814 21.4095C18.2551 21.4472 18.2231 21.4813 18.1855 21.5122C18.1489 21.542 18.1072 21.557 18.0605 21.557C18.0001 21.557 17.9451 21.5348 17.896 21.4907C17.8469 21.4455 17.8049 21.382 17.7694 21.3003C17.7351 21.2176 17.7084 21.1178 17.689 21.0006C17.6706 20.8836 17.6615 20.7529 17.6615 20.6083C17.6615 20.529 17.6644 20.4455 17.6701 20.3583C17.6759 20.2702 17.6849 20.1835 17.6975 20.0984C17.71 20.0134 17.7254 19.9324 17.7437 19.855C17.7632 19.7778 17.786 19.71 17.8123 19.6514C17.8386 19.593 17.8688 19.5467 17.903 19.5124C17.9383 19.4772 17.9771 19.4595 18.0193 19.4595C18.0821 19.4595 18.1279 19.4964 18.1563 19.5704C18.1861 19.6443 18.2009 19.7586 18.2009 19.913C18.2009 20.0034 18.1941 20.1052 18.1803 20.2176C18.1666 20.3291 18.1432 20.4433 18.1101 20.5604C18.0667 20.7083 18.0211 20.8347 17.9732 20.9394C17.9264 21.0432 17.8865 21.1259 17.8534 21.1878C17.8658 21.2308 17.8795 21.27 17.8945 21.3054C17.9105 21.3406 17.928 21.3715 17.9475 21.398C17.9669 21.4235 17.988 21.4433 18.0108 21.4576C18.0336 21.4719 18.0587 21.479 18.0862 21.479C18.1205 21.479 18.1524 21.4692 18.182 21.4493C18.2118 21.4295 18.2379 21.4063 18.2607 21.3798C18.2849 21.3532 18.3053 21.3263 18.3225 21.2986C18.3396 21.2711 18.3527 21.2491 18.3618 21.2325L18.3721 21.2391ZM17.7659 20.4924C17.7659 20.5388 17.7671 20.5891 17.7694 20.6431C17.7729 20.696 17.7774 20.7501 17.7831 20.8053C17.7889 20.8605 17.7957 20.9157 17.8037 20.9709C17.8129 21.026 17.8236 21.079 17.8362 21.1298C17.8602 21.0812 17.8881 21.0189 17.92 20.9428C17.9531 20.8667 17.9847 20.781 18.0143 20.6862C18.0451 20.5902 18.0708 20.4864 18.0912 20.3749C18.1131 20.2634 18.1238 20.1481 18.1238 20.0289C18.1238 19.9539 18.1205 19.8855 18.1136 19.8236C18.1078 19.7607 18.0986 19.7072 18.0862 19.6631C18.0737 19.6179 18.0575 19.583 18.0382 19.5587C18.0199 19.5333 17.9983 19.5207 17.9732 19.5207C17.9492 19.5207 17.9276 19.5373 17.9081 19.5704C17.8886 19.6024 17.8709 19.6448 17.8549 19.6977C17.8401 19.7509 17.8271 19.8115 17.8156 19.8799C17.8043 19.9484 17.7945 20.0185 17.7866 20.0901C17.7797 20.1619 17.7745 20.2331 17.7712 20.3037C17.7677 20.3732 17.7659 20.4361 17.7659 20.4924ZM18.6221 21.4941C18.6495 21.4941 18.6762 21.4885 18.7025 21.4775C18.7288 21.4653 18.7522 21.4482 18.7727 21.4261C18.7933 21.4029 18.8093 21.3749 18.8206 21.3417C18.8332 21.3086 18.8395 21.27 18.8395 21.2259C18.8395 21.1893 18.835 21.1553 18.8258 21.1232C18.8167 21.0901 18.8031 21.0615 18.7847 21.0372C18.7676 21.0129 18.7448 20.9935 18.7162 20.9791C18.6889 20.9648 18.6564 20.9577 18.6186 20.9577C18.5925 20.9577 18.5662 20.9626 18.5399 20.9725C18.5136 20.9814 18.4902 20.9963 18.4697 21.0172C18.4491 21.0372 18.4325 21.063 18.4201 21.095C18.4074 21.1259 18.4012 21.1635 18.4012 21.2076C18.4012 21.243 18.4058 21.2777 18.4148 21.312C18.424 21.3451 18.4372 21.3754 18.4543 21.4029C18.4725 21.4306 18.4955 21.4527 18.5227 21.4692C18.5514 21.4858 18.5845 21.4941 18.6221 21.4941ZM18.5621 21.5785C18.4869 21.5785 18.4251 21.5548 18.3772 21.5073C18.3293 21.4587 18.3053 21.3886 18.3053 21.2971C18.3053 21.2353 18.3174 21.1784 18.3414 21.1264C18.3653 21.0735 18.3961 21.0283 18.4337 20.9908C18.4725 20.9522 18.5153 20.9223 18.5621 20.9013C18.609 20.8804 18.6546 20.8699 18.699 20.8699C18.7711 20.8699 18.8288 20.8936 18.872 20.9411C18.9155 20.9886 18.9371 21.0586 18.9371 21.1513C18.9371 21.2131 18.9258 21.27 18.9028 21.322C18.8812 21.3737 18.8521 21.419 18.8155 21.4576C18.7801 21.4951 18.7401 21.525 18.6957 21.547C18.6511 21.5679 18.6067 21.5785 18.5621 21.5785ZM19.6477 20.8699C19.6797 20.8699 19.7064 20.8722 19.7282 20.8765C19.7498 20.881 19.7669 20.887 19.7794 20.8948C19.7921 20.9013 19.8006 20.9091 19.8051 20.9179C19.8108 20.9256 19.8137 20.9334 19.8137 20.9411C19.8137 20.9531 19.8075 20.9671 19.7948 20.9825C19.7835 20.998 19.7732 21.0057 19.764 21.0057C19.7595 21.0057 19.7533 21.004 19.7453 21.0006C19.7383 20.9963 19.7276 20.9923 19.7128 20.9891C19.699 20.9846 19.6812 20.9808 19.6596 20.9774C19.6392 20.9731 19.6129 20.9709 19.5809 20.9709C19.4496 20.9709 19.3481 20.9991 19.276 21.0552C19.2042 21.1104 19.1683 21.1867 19.1683 21.2837C19.1683 21.3003 19.1716 21.3186 19.1784 21.3383C19.1864 21.3583 19.1979 21.3766 19.2127 21.393C19.2287 21.4095 19.2488 21.4239 19.2727 21.4361C19.2979 21.4472 19.3281 21.4527 19.3635 21.4527C19.4307 21.4527 19.4878 21.4404 19.5347 21.4161C19.5827 21.392 19.6226 21.3643 19.6545 21.3334C19.6545 21.328 19.6551 21.3229 19.6563 21.3186C19.6573 21.314 19.659 21.3091 19.6614 21.3037C19.6693 21.2662 19.6797 21.2314 19.6921 21.1993C19.7058 21.1662 19.7202 21.1381 19.735 21.1149C19.7498 21.0906 19.7646 21.0718 19.7794 21.0586C19.7944 21.0454 19.8069 21.0388 19.8172 21.0388C19.8297 21.0388 19.8365 21.0426 19.8377 21.0503C19.84 21.0581 19.8412 21.0647 19.8412 21.0703C19.8412 21.0901 19.8291 21.1232 19.8051 21.1696C19.7823 21.2148 19.751 21.2628 19.711 21.3137C19.7019 21.3666 19.6927 21.4333 19.6836 21.5139C19.6744 21.5945 19.6658 21.6866 19.6579 21.7904C19.6499 21.8942 19.643 22.0078 19.6374 22.1313C19.6327 22.256 19.6306 22.3881 19.6306 22.5271C19.6306 22.6429 19.6327 22.7544 19.6374 22.8614C19.6419 22.9697 19.6466 23.065 19.651 23.1479C19.6567 23.2306 19.6619 23.2974 19.6664 23.3481C19.6711 23.4001 19.6732 23.4282 19.6732 23.4327C19.6732 23.4481 19.6717 23.4596 19.6682 23.4673C19.6658 23.4762 19.6602 23.485 19.651 23.4939C19.6442 23.5005 19.6356 23.5076 19.6253 23.5154C19.6162 23.5231 19.6066 23.527 19.5963 23.527C19.5827 23.527 19.5729 23.5225 19.5673 23.5137C19.5603 23.506 19.5529 23.4899 19.5449 23.4656C19.5369 23.4413 19.5295 23.4007 19.5227 23.3432C19.517 23.2869 19.5118 23.2097 19.5073 23.1113C19.5026 23.0132 19.5005 22.8851 19.5005 22.7273C19.5005 22.5883 19.5049 22.4536 19.5141 22.3234C19.5232 22.1942 19.5347 22.0724 19.5484 21.9577C19.5632 21.8439 19.5792 21.7384 19.5963 21.6414C19.6134 21.5453 19.6294 21.461 19.6442 21.3881C19.5963 21.4344 19.5431 21.4736 19.4851 21.5056C19.428 21.5376 19.3668 21.5536 19.3018 21.5536C19.2721 21.5536 19.2429 21.5497 19.2145 21.542C19.187 21.5333 19.1625 21.5199 19.1408 21.5024C19.1204 21.4847 19.1038 21.4627 19.0912 21.4361C19.0787 21.4095 19.0723 21.3786 19.0723 21.3434C19.0723 21.296 19.0861 21.2445 19.1134 21.1893C19.142 21.1332 19.1814 21.0818 19.2316 21.0355C19.2831 20.988 19.344 20.9488 19.4147 20.9179C19.4856 20.8859 19.5632 20.8699 19.6477 20.8699ZM19.7436 21.1878C19.7389 21.1933 19.735 21.2016 19.7315 21.2125C19.7282 21.2236 19.7247 21.2368 19.7214 21.2523C19.7258 21.2468 19.7297 21.2425 19.7332 21.2391C19.7368 21.2347 19.7395 21.2308 19.7418 21.2276C19.7442 21.2231 19.7459 21.2193 19.7469 21.2159C19.7516 21.2005 19.7549 21.1884 19.7572 21.1796C19.7595 21.1718 19.7601 21.1679 19.759 21.1679C19.7578 21.1667 19.7527 21.1733 19.7436 21.1878Z" fill="white"/>
<path d="M2.55844 14.288C3.41915 14.288 4.11688 13.8285 4.11688 13.2618C4.11688 12.695 3.41915 12.2356 2.55844 12.2356C1.69773 12.2356 1 12.695 1 13.2618C1 13.8285 1.69773 14.288 2.55844 14.288Z" fill="white"/>
<path d="M29.4416 14.288C28.5809 14.288 27.8831 13.8285 27.8831 13.2618C27.8831 12.695 28.5809 12.2356 29.4416 12.2356C30.3022 12.2356 31 12.695 31 13.2618C31 13.8285 30.3022 14.288 29.4416 14.288Z" fill="white"/>
<path d="M29.8312 7.75757H25.5455V9.99653H29.8312V7.75757Z" fill="#9B1717"/>
<path d="M7 18.4242H25" stroke="white" stroke-width="0.3"/>
<defs>
<filter id="filter0_d_40_12" x="1.74274" y="10.5205" width="28.3444" height="11.0137" filterUnits="userSpaceOnUse" color-interpolation-filters="sRGB">
<feFlood flood-opacity="0" result="BackgroundImageFix"/>
<feColorMatrix in="SourceAlpha" type="matrix" values="0 0 0 0 0 0 0 0 0 0 0 0 0 0 0 0 0 0 127 0" result="hardAlpha"/>
<feOffset dy="4"/>
<feGaussianBlur stdDeviation="2"/>
<feComposite in2="hardAlpha" operator="out"/>
<feColorMatrix type="matrix" values="0 0 0 0 0 0 0 0 0 0 0 0 0 0 0 0 0 0 0.25 0"/>
<feBlend mode="normal" in2="BackgroundImageFix" result="effect1_dropShadow_40_12"/>
<feBlend mode="normal" in="SourceGraphic" in2="effect1_dropShadow_40_12" result="shape"/>
</filter>
</defs>
</svg>
