<svg width="546" height="232" viewBox="0 0 546 232" fill="none" xmlns="http://www.w3.org/2000/svg">
<path d="M543.557 1.01755H0.903961V229.008H543.557V1.01755Z" fill="#9B1717" stroke="black"/>
<g clip-path="url(#clip0_6_17)">
<path d="M490 14H55V218H490V14Z" fill="#9B1717"/>
<g filter="url(#filter0_d_6_17)">
<path d="M183.122 106.561C180.112 106.561 177.562 105.891 175.472 104.552C173.424 103.171 171.877 101.33 170.832 99.0286C169.829 96.6853 169.327 94.0698 169.327 91.1824C169.327 88.295 169.829 85.7007 170.832 83.399C171.877 81.0558 173.424 79.2145 175.472 77.8753C177.562 76.4944 180.112 75.804 183.122 75.804C187.72 75.804 190.751 76.5364 192.214 78.0009C192.924 78.7123 193.363 79.5911 193.53 80.6372C193.698 81.6415 193.781 83.4828 193.781 86.1609H192.527C192.36 83.5665 191.545 81.6207 190.082 80.3233C188.619 78.9844 186.717 78.3147 184.376 78.3147C181.366 78.3147 179.088 79.5073 177.541 81.8926C176.036 84.2778 175.284 87.3745 175.284 91.1824C175.284 94.9905 176.036 98.087 177.541 100.472C179.088 102.857 181.366 104.05 184.376 104.05C186.508 104.05 188.263 103.653 189.643 102.857C191.022 102.021 192.297 100.744 193.468 99.0286L194.722 99.9701C193.342 102.314 191.712 104.008 189.831 105.054C187.95 106.059 185.713 106.561 183.122 106.561ZM209.607 78.9424H206.472C204.507 78.9424 202.919 79.5073 201.707 80.6372C200.494 81.7253 199.888 83.2527 199.888 85.2193H198.634V81.4532C198.634 78.1056 200.202 76.4316 203.337 76.4316H225.596V78.9424H215.25V105.933H209.607V78.9424ZM231.906 83.964C231.906 81.8298 231.614 80.2606 231.029 79.2563C230.443 78.2102 229.273 77.687 227.517 77.687H226.577V76.4316H231.906C233.453 76.4316 234.603 76.6409 235.355 77.0593C236.149 77.436 236.714 78.1474 237.048 79.1935C237.382 80.2398 237.55 81.8298 237.55 83.964V100.284L250.717 76.4316H256.36V105.933H250.717V82.0809L237.55 105.933H231.906V83.964ZM300.495 107.189C296.774 107.189 294.119 106.289 292.53 104.489C290.942 102.648 290.149 99.9911 290.149 96.5178V83.0224L279.803 105.933H278.549L267.889 82.3947V105.933H265.381V76.4316H271.338L280.743 97.1455L290.149 76.4316H295.792V96.5178C295.792 98.9868 296.231 101.184 297.109 103.109C298.028 104.992 299.156 105.933 300.495 105.933V107.189ZM317.575 106.561C314.732 106.561 312.328 105.891 310.365 104.552C308.399 103.171 306.916 101.33 305.913 99.0286C304.909 96.6853 304.408 94.0698 304.408 91.1824C304.408 88.337 304.909 85.7425 305.913 83.399C306.916 81.0558 308.358 79.2145 310.239 77.8753C312.161 76.4944 314.397 75.804 316.948 75.804C321.169 75.804 324.304 76.9966 326.354 79.3818C328.443 81.7253 329.489 85.1358 329.489 89.6132L329.364 92.124H310.365C310.365 95.639 311.117 98.5056 312.622 100.723C314.127 102.941 316.196 104.05 318.829 104.05C320.793 104.05 322.445 103.632 323.783 102.795C325.162 101.958 326.436 100.703 327.608 99.0286L328.862 99.9701C327.482 102.272 325.872 103.946 324.034 104.992C322.194 106.038 320.04 106.561 317.575 106.561ZM323.532 89.6132C323.532 85.9308 322.987 83.1272 321.902 81.2021C320.814 79.2772 319.163 78.3147 316.948 78.3147C315.694 78.3147 314.566 78.8169 313.562 79.8212C312.559 80.7837 311.764 82.1229 311.18 83.8384C310.635 85.5542 310.365 87.479 310.365 89.6132H323.532ZM337.595 83.964C337.595 81.8298 337.301 80.2606 336.717 79.2563C336.131 78.2102 334.962 77.687 333.206 77.687H332.265V76.4316H337.595C339.141 76.4316 340.291 76.6409 341.044 77.0593C341.837 77.436 342.402 78.1474 342.737 79.1935C343.07 80.2398 343.238 81.8298 343.238 83.964V103.422H352.957V76.4316H358.601V103.422H368.32V76.4316H373.963V105.933H337.595V83.964Z" fill="white"/>
</g>
<path d="M143.221 67.4323C141.298 67.4323 139.751 66.8884 138.581 65.8003C137.494 64.6287 136.95 63.0803 136.95 61.1554C136.95 59.2305 137.494 57.7241 138.581 56.636C139.751 55.4644 141.298 54.8785 143.221 54.8785C145.144 54.8785 146.648 55.4644 147.735 56.636C148.906 57.7241 149.491 59.2305 149.491 61.1554C149.491 63.0803 148.906 64.6287 147.735 65.8003C146.648 66.8884 145.144 67.4323 143.221 67.4323ZM162.533 67.4323C160.61 67.4323 159.064 66.8884 157.893 65.8003C156.806 64.6287 156.263 63.0803 156.263 61.1554C156.263 59.2305 156.806 57.7241 157.893 56.636C159.064 55.4644 160.61 54.8785 162.533 54.8785C164.456 54.8785 165.961 55.4644 167.048 56.636C168.218 57.7241 168.803 59.2305 168.803 61.1554C168.803 63.0803 168.218 64.6287 167.048 65.8003C165.961 66.8884 164.456 67.4323 162.533 67.4323ZM158.52 157.192C155.427 157.192 153.086 156.816 151.497 156.062C149.993 155.225 148.906 153.761 148.237 151.669C147.568 149.576 147.234 146.396 147.234 142.128V74.3369H158.52V142.128C158.52 146.396 159.105 149.576 160.276 151.669C161.446 153.677 163.787 154.682 167.299 154.682H169.807V157.192H158.52Z" fill="white"/>
<path d="M401.779 67.4323C403.701 67.4323 405.249 66.8884 406.419 65.8003C407.507 64.6287 408.05 63.0803 408.05 61.1554C408.05 59.2305 407.507 57.7241 406.419 56.636C405.249 55.4644 403.701 54.8785 401.779 54.8785C399.857 54.8785 398.352 55.4644 397.265 56.636C396.095 57.7241 395.509 59.2305 395.509 61.1554C395.509 63.0803 396.095 64.6287 397.265 65.8003C398.352 66.8884 399.857 67.4323 401.779 67.4323ZM382.467 67.4323C384.389 67.4323 385.937 66.8884 387.107 65.8003C388.194 64.6287 388.737 63.0803 388.737 61.1554C388.737 59.2305 388.194 57.7241 387.107 56.636C385.937 55.4644 384.389 54.8785 382.467 54.8785C380.545 54.8785 379.04 55.4644 377.952 56.636C376.782 57.7241 376.197 59.2305 376.197 61.1554C376.197 63.0803 376.782 64.6287 377.952 65.8003C379.04 66.8884 380.545 67.4323 382.467 67.4323ZM386.48 157.192C389.574 157.192 391.913 156.816 393.503 156.062C395.007 155.225 396.095 153.761 396.763 151.669C397.431 149.576 397.766 146.396 397.766 142.128V74.3369H386.48V142.128C386.48 146.396 385.894 149.576 384.724 151.669C383.554 153.677 381.213 154.682 377.701 154.682H375.193V157.192H386.48Z" fill="white"/>
<path d="M168.398 147.006C167.549 147.006 166.615 146.836 165.596 146.496V145.476C166.649 145.374 167.532 144.966 168.245 144.252C168.958 143.538 169.689 142.586 170.436 141.396L173.492 136.041C171.862 135.769 170.47 135.055 169.315 133.899C168.194 132.709 167.634 131.213 167.634 129.411C167.634 124.821 171.03 122.526 177.823 122.526H189.795V123.546C188.369 123.546 187.418 123.971 186.942 124.821C186.467 125.637 186.229 126.912 186.229 128.646V146.496H181.644V136.296H177.67L174.613 142.416C173.798 144.014 172.898 145.187 171.913 145.935C170.962 146.649 169.79 147.006 168.398 147.006ZM178.332 134.511C178.842 134.511 179.419 134.46 180.064 134.358C180.71 134.256 181.236 134.137 181.644 134.001V124.821C181.236 124.685 180.71 124.566 180.064 124.464C179.419 124.362 178.842 124.311 178.332 124.311C174.427 124.311 172.474 126.011 172.474 129.411C172.474 132.811 174.427 134.511 178.332 134.511ZM216.937 147.006C214.492 147.006 212.42 146.462 210.722 145.374C209.058 144.252 207.801 142.756 206.952 140.886C206.137 138.982 205.729 136.857 205.729 134.511C205.729 132.165 206.137 130.057 206.952 128.187C207.801 126.283 209.058 124.787 210.722 123.699C212.42 122.577 214.492 122.016 216.937 122.016C220.673 122.016 223.136 122.611 224.325 123.801C224.902 124.379 225.259 125.093 225.394 125.943C225.53 126.759 225.598 128.255 225.598 130.431H224.579C224.443 128.323 223.781 126.742 222.592 125.688C221.404 124.6 219.858 124.056 217.956 124.056C215.511 124.056 213.66 125.025 212.403 126.963C211.18 128.901 210.569 131.417 210.569 134.511C210.569 137.605 211.18 140.121 212.403 142.059C213.66 143.997 215.511 144.966 217.956 144.966C219.688 144.966 221.115 144.643 222.236 143.997C223.357 143.317 224.393 142.28 225.343 140.886L226.362 141.651C225.242 143.555 223.917 144.932 222.389 145.782C220.86 146.598 219.043 147.006 216.937 147.006ZM250.429 147.006C247.678 147.006 245.216 145.646 243.042 142.926L237.183 135.531V146.496H232.598V128.646C232.598 126.912 232.36 125.637 231.885 124.821C231.409 123.971 230.458 123.546 229.032 123.546H228.013V122.526H232.598C233.855 122.526 234.789 122.696 235.4 123.036C236.045 123.342 236.504 123.92 236.776 124.77C237.047 125.62 237.183 126.912 237.183 128.646V134.766L243.552 125.841C244.333 124.753 245.233 123.937 246.252 123.393C247.304 122.815 248.612 122.526 250.174 122.526H251.448V123.801C249.478 123.801 247.95 124.566 246.863 126.096L241.259 134.001L247.118 141.396C248.069 142.62 249.003 143.572 249.92 144.252C250.871 144.932 251.89 145.357 252.976 145.527V146.496C252.229 146.836 251.381 147.006 250.429 147.006ZM262.761 147.006C261.674 147.006 260.571 146.785 259.45 146.343C258.329 145.867 257.361 145.102 256.546 144.048C255.764 142.994 255.374 141.6 255.374 139.866C255.374 137.282 256.564 135.446 258.941 134.358C261.353 133.27 264.494 132.726 268.366 132.726H269.894C269.894 129.394 269.435 127.116 268.518 125.892C267.601 124.668 266.277 124.056 264.545 124.056C263.016 124.056 261.794 124.379 260.876 125.025C259.959 125.671 259.315 126.793 258.941 128.391H256.648C256.648 127.235 256.717 126.334 256.852 125.688C256.987 125.008 257.344 124.379 257.922 123.801C258.533 123.189 259.534 122.747 260.927 122.475C262.354 122.169 263.9 122.016 265.564 122.016C268.315 122.016 270.488 122.764 272.085 124.26C273.682 125.722 274.479 128.544 274.479 132.726V146.496H271.932L270.149 144.201H269.894C269.283 144.983 268.383 145.646 267.194 146.19C266.004 146.734 264.527 147.006 262.761 147.006ZM265.054 144.711C266.175 144.711 267.11 144.439 267.856 143.895C268.603 143.351 269.283 142.603 269.894 141.651V134.766H268.366C265.852 134.766 263.865 135.242 262.405 136.194C260.945 137.112 260.214 138.336 260.214 139.866C260.214 141.43 260.673 142.637 261.59 143.487C262.54 144.303 263.696 144.711 265.054 144.711ZM288.666 147.006C286.526 147.006 284.743 146.649 283.316 145.935C281.923 145.221 280.734 144.218 279.75 142.926L280.769 142.161C281.617 143.011 282.552 143.691 283.571 144.201C284.623 144.711 285.981 144.966 287.647 144.966C291.891 144.966 294.015 143.351 294.015 140.121C294.015 136.891 291.636 135.276 286.882 135.276H284.59V133.236H286.882C288.954 133.236 290.533 132.862 291.62 132.114C292.706 131.332 293.251 130.176 293.251 128.646C293.251 127.184 292.775 126.062 291.824 125.28C290.872 124.464 289.649 124.056 288.156 124.056C286.287 124.056 284.743 124.549 283.52 125.535C282.297 126.487 281.635 127.779 281.533 129.411H280.514C280.514 127.745 280.581 126.538 280.718 125.79C280.853 125.042 281.21 124.379 281.788 123.801C282.975 122.611 285.354 122.016 288.92 122.016C291.534 122.016 293.709 122.543 295.441 123.597C297.207 124.617 298.091 126.3 298.091 128.646C298.091 130.108 297.632 131.315 296.715 132.267C295.831 133.185 294.591 133.848 292.996 134.256C294.863 134.63 296.307 135.327 297.326 136.347C298.345 137.367 298.855 138.625 298.855 140.121C298.855 144.711 295.457 147.006 288.666 147.006ZM310.474 147.006C309.387 147.006 308.284 146.785 307.163 146.343C306.042 145.867 305.074 145.102 304.259 144.048C303.477 142.994 303.087 141.6 303.087 139.866C303.087 137.282 304.275 135.446 306.653 134.358C309.063 133.27 312.206 132.726 316.078 132.726H317.607C317.607 129.394 317.148 127.116 316.231 125.892C315.314 124.668 313.99 124.056 312.257 124.056C310.729 124.056 309.506 124.379 308.589 125.025C307.672 125.671 307.026 126.793 306.653 128.391H304.361C304.361 127.235 304.427 126.334 304.565 125.688C304.7 125.008 305.056 124.379 305.634 123.801C306.246 123.189 307.247 122.747 308.64 122.475C310.067 122.169 311.611 122.016 313.276 122.016C316.027 122.016 318.2 122.764 319.797 124.26C321.392 125.722 322.192 128.544 322.192 132.726V146.496H319.645L317.861 144.201H317.607C316.995 144.983 316.094 145.646 314.907 146.19C313.717 146.734 312.24 147.006 310.474 147.006ZM312.767 144.711C313.888 144.711 314.82 144.439 315.569 143.895C316.315 143.351 316.995 142.603 317.607 141.651V134.766H316.078C313.564 134.766 311.577 135.242 310.118 136.194C308.656 137.112 307.927 138.336 307.927 139.866C307.927 141.43 308.386 142.637 309.303 143.487C310.253 144.303 311.407 144.711 312.767 144.711ZM328.582 147.006C328.311 147.006 327.886 146.955 327.308 146.853C326.765 146.751 326.358 146.649 326.085 146.547V145.272C328.057 145.272 329.652 144.099 330.874 141.753C332.097 139.407 332.708 135.038 332.708 128.646C332.708 126.912 332.454 125.637 331.944 124.821C331.47 123.971 330.518 123.546 329.091 123.546V122.526H349.775V146.496H345.19V124.566H336.224V128.646C336.224 135.616 335.51 140.427 334.084 143.079C332.693 145.697 330.859 147.006 328.582 147.006ZM362.813 147.006C361.726 147.006 360.623 146.785 359.502 146.343C358.381 145.867 357.413 145.102 356.598 144.048C355.816 142.994 355.426 141.6 355.426 139.866C355.426 137.282 356.614 135.446 358.993 134.358C361.403 133.27 364.546 132.726 368.417 132.726H369.946C369.946 129.394 369.487 127.116 368.57 125.892C367.653 124.668 366.329 124.056 364.597 124.056C363.068 124.056 361.845 124.379 360.928 125.025C360.011 125.671 359.365 126.793 358.993 128.391H356.7C356.7 127.235 356.767 126.334 356.904 125.688C357.039 125.008 357.396 124.379 357.974 123.801C358.585 123.189 359.586 122.747 360.979 122.475C362.406 122.169 363.95 122.016 365.615 122.016C368.367 122.016 370.54 122.764 372.137 124.26C373.732 125.722 374.531 128.544 374.531 132.726V146.496H371.984L370.201 144.201H369.946C369.335 144.983 368.433 145.646 367.246 146.19C366.056 146.734 364.579 147.006 362.813 147.006ZM365.106 144.711C366.227 144.711 367.16 144.439 367.908 143.895C368.655 143.351 369.335 142.603 369.946 141.651V134.766H368.417C365.904 134.766 363.917 135.242 362.457 136.194C360.995 137.112 360.266 138.336 360.266 139.866C360.266 141.43 360.725 142.637 361.642 143.487C362.592 144.303 363.746 144.711 365.106 144.711Z" fill="white"/>
<path d="M245.177 203.942C244.867 203.942 244.585 203.868 244.333 203.718C244.092 203.581 243.885 203.328 243.713 202.96C243.552 202.592 243.426 202.098 243.334 201.477C243.253 200.857 243.213 200.069 243.213 199.115C243.213 197.046 243.213 195.248 243.213 193.719C243.213 192.202 243.213 190.886 243.213 189.771C243.225 188.656 243.231 187.708 243.231 186.927C243.231 186.145 243.231 185.455 243.231 184.858C243.242 184.249 243.248 183.697 243.248 183.203C243.248 182.697 243.248 182.174 243.248 181.634C243.248 180.76 243.282 179.852 243.351 178.91C243.42 177.967 243.523 177.042 243.661 176.134C243.81 175.226 244 174.364 244.23 173.548C244.459 172.732 244.735 172.014 245.056 171.393C245.378 170.773 245.751 170.284 246.175 169.928C246.6 169.56 247.082 169.376 247.622 169.376C247.829 169.376 248.035 169.445 248.242 169.583C248.449 169.709 248.632 169.911 248.793 170.187C248.966 170.451 249.097 170.784 249.189 171.186C249.293 171.589 249.344 172.06 249.344 172.6C249.344 173.543 249.241 174.502 249.034 175.479C248.839 176.456 248.581 177.416 248.259 178.358C247.938 179.301 247.582 180.203 247.192 181.065C246.801 181.927 246.422 182.714 246.055 183.427C245.688 184.139 245.349 184.754 245.039 185.272C244.729 185.789 244.493 186.168 244.333 186.409C244.333 186.444 244.327 186.49 244.316 186.547C244.316 186.593 244.316 186.674 244.316 186.789C244.316 186.892 244.316 187.041 244.316 187.237C244.316 187.421 244.321 187.674 244.333 187.996C244.367 188.329 244.442 188.628 244.557 188.892C244.683 189.145 244.832 189.363 245.004 189.547C245.188 189.72 245.383 189.852 245.59 189.944C245.808 190.036 246.026 190.081 246.244 190.081C246.704 190.081 247.105 189.99 247.45 189.806C247.806 189.61 248.122 189.369 248.397 189.082C248.673 188.783 248.914 188.455 249.121 188.099C249.327 187.731 249.517 187.375 249.689 187.03L249.809 187.099C249.706 187.363 249.557 187.708 249.362 188.133C249.178 188.559 248.937 188.972 248.638 189.375C248.351 189.777 248.001 190.128 247.588 190.426C247.174 190.714 246.692 190.857 246.141 190.857C245.98 190.857 245.802 190.846 245.607 190.823C245.423 190.788 245.234 190.714 245.039 190.599C245.326 191.323 245.59 192.03 245.831 192.719C246.072 193.42 246.279 194.139 246.451 194.874C246.635 195.61 246.772 196.38 246.864 197.184C246.968 198 247.019 198.891 247.019 199.857C247.019 200.466 246.968 201.017 246.864 201.512C246.772 202.017 246.646 202.448 246.485 202.805C246.325 203.173 246.13 203.454 245.9 203.649C245.67 203.845 245.429 203.942 245.177 203.942ZM244.402 181.531C244.402 181.864 244.396 182.22 244.384 182.599C244.384 182.979 244.379 183.352 244.367 183.72C244.356 184.076 244.344 184.421 244.333 184.754C244.333 185.088 244.333 185.375 244.333 185.616C244.528 185.249 244.763 184.795 245.039 184.254C245.326 183.714 245.619 183.122 245.917 182.479C246.227 181.824 246.526 181.122 246.813 180.375C247.111 179.628 247.375 178.864 247.605 178.082C247.846 177.301 248.035 176.508 248.173 175.703C248.322 174.899 248.397 174.111 248.397 173.341C248.397 172.928 248.374 172.537 248.328 172.169C248.294 171.79 248.219 171.462 248.104 171.186C248.001 170.911 247.852 170.692 247.657 170.531C247.473 170.359 247.226 170.273 246.916 170.273C246.595 170.273 246.308 170.422 246.055 170.721C245.802 171.008 245.584 171.416 245.4 171.945C245.217 172.462 245.062 173.077 244.935 173.79C244.809 174.502 244.706 175.278 244.626 176.117C244.545 176.945 244.488 177.824 244.453 178.755C244.419 179.674 244.402 180.599 244.402 181.531ZM246.313 199.253C246.313 198.345 246.256 197.477 246.141 196.65C246.026 195.822 245.877 195.024 245.693 194.254C245.51 193.495 245.297 192.754 245.056 192.03C244.815 191.317 244.574 190.616 244.333 189.926V192.857C244.333 193.685 244.327 194.512 244.316 195.34C244.316 196.179 244.321 196.983 244.333 197.753C244.344 198.523 244.361 199.242 244.384 199.908C244.419 200.575 244.465 201.155 244.522 201.65C244.58 202.144 244.66 202.529 244.763 202.805C244.878 203.092 245.016 203.236 245.177 203.236C245.349 203.236 245.504 203.167 245.642 203.029C245.791 202.902 245.912 202.684 246.003 202.374C246.107 202.075 246.181 201.667 246.227 201.15C246.285 200.644 246.313 200.012 246.313 199.253ZM252.133 190.081C252.41 190.081 252.68 190.024 252.945 189.909C253.207 189.783 253.442 189.605 253.65 189.375C253.856 189.133 254.016 188.84 254.132 188.495C254.257 188.151 254.322 187.748 254.322 187.289C254.322 186.909 254.275 186.553 254.183 186.22C254.091 185.875 253.954 185.576 253.77 185.323C253.599 185.07 253.368 184.869 253.082 184.72C252.805 184.57 252.478 184.496 252.1 184.496C251.836 184.496 251.571 184.547 251.308 184.651C251.044 184.743 250.808 184.898 250.601 185.116C250.395 185.323 250.228 185.593 250.102 185.927C249.976 186.248 249.913 186.639 249.913 187.099C249.913 187.467 249.959 187.829 250.05 188.185C250.142 188.53 250.274 188.846 250.446 189.133C250.63 189.421 250.86 189.65 251.136 189.823C251.422 189.995 251.755 190.081 252.133 190.081ZM251.532 190.961C250.774 190.961 250.154 190.714 249.672 190.219C249.189 189.714 248.948 188.984 248.948 188.03C248.948 187.386 249.069 186.794 249.31 186.254C249.551 185.703 249.861 185.231 250.24 184.841C250.63 184.438 251.062 184.128 251.532 183.909C252.002 183.691 252.461 183.582 252.909 183.582C253.632 183.582 254.212 183.829 254.649 184.323C255.084 184.817 255.304 185.547 255.304 186.513C255.304 187.156 255.188 187.748 254.959 188.289C254.741 188.829 254.447 189.3 254.081 189.702C253.724 190.093 253.323 190.403 252.874 190.633C252.427 190.852 251.979 190.961 251.532 190.961ZM259.918 190.081C260.195 190.081 260.463 190.024 260.728 189.909C260.992 189.783 261.227 189.605 261.435 189.375C261.641 189.133 261.801 188.84 261.917 188.495C262.042 188.151 262.105 187.748 262.105 187.289C262.105 186.909 262.06 186.553 261.968 186.22C261.876 185.875 261.739 185.576 261.554 185.323C261.382 185.07 261.153 184.869 260.865 184.72C260.59 184.57 260.263 184.496 259.885 184.496C259.62 184.496 259.356 184.547 259.091 184.651C258.827 184.743 258.592 184.898 258.386 185.116C258.178 185.323 258.012 185.593 257.886 185.927C257.761 186.248 257.696 186.639 257.696 187.099C257.696 187.467 257.743 187.829 257.835 188.185C257.926 188.53 258.059 188.846 258.231 189.133C258.415 189.421 258.645 189.65 258.919 189.823C259.207 189.995 259.54 190.081 259.918 190.081ZM259.315 190.961C258.558 190.961 257.937 190.714 257.455 190.219C256.973 189.714 256.732 188.984 256.732 188.03C256.732 187.386 256.854 186.794 257.095 186.254C257.336 185.703 257.645 185.231 258.024 184.841C258.415 184.438 258.845 184.128 259.315 183.909C259.787 183.691 260.246 183.582 260.694 183.582C261.417 183.582 261.997 183.829 262.432 184.323C262.869 184.817 263.087 185.547 263.087 186.513C263.087 187.156 262.973 187.748 262.744 188.289C262.524 188.829 262.232 189.3 261.864 189.702C261.509 190.093 261.108 190.403 260.659 190.633C260.212 190.852 259.764 190.961 259.315 190.961ZM269.253 183.72C269.218 183.387 269.194 183.042 269.185 182.685C269.185 182.329 269.185 181.956 269.185 181.565C269.185 180.737 269.2 179.87 269.236 178.962C269.281 178.042 269.345 177.14 269.426 176.255C269.518 175.37 269.625 174.525 269.753 173.721C269.878 172.916 270.033 172.209 270.217 171.6C270.401 170.991 270.607 170.508 270.836 170.152C271.068 169.784 271.324 169.6 271.612 169.6C272.049 169.6 272.371 169.985 272.576 170.755C272.784 171.525 272.886 172.715 272.886 174.324C272.886 175.267 272.823 176.324 272.698 177.496C272.582 178.657 272.377 179.847 272.077 181.065C271.824 182.111 271.583 183.03 271.354 183.823C271.136 184.605 270.929 185.289 270.735 185.875C270.836 186.427 270.964 186.949 271.113 187.444C271.273 187.938 271.452 188.369 271.646 188.737C271.842 189.105 272.059 189.398 272.3 189.616C272.541 189.823 272.806 189.926 273.094 189.926C273.335 189.926 273.576 189.829 273.817 189.633C274.058 189.438 274.281 189.208 274.489 188.944C274.706 188.679 274.896 188.409 275.057 188.133C275.23 187.857 275.361 187.633 275.453 187.461L275.608 187.53C275.608 187.53 275.578 187.61 275.521 187.771C275.465 187.932 275.378 188.139 275.263 188.392C275.149 188.633 275.004 188.898 274.832 189.185C274.671 189.472 274.489 189.742 274.281 189.995C274.075 190.237 273.846 190.444 273.593 190.616C273.341 190.777 273.07 190.857 272.784 190.857C272.163 190.857 271.618 190.593 271.148 190.064C270.676 189.536 270.28 188.771 269.959 187.771C269.798 188.139 269.598 188.501 269.357 188.857C269.114 189.202 268.846 189.513 268.546 189.788C268.248 190.053 267.915 190.265 267.548 190.426C267.192 190.587 266.82 190.668 266.428 190.668C266.13 190.668 265.844 190.616 265.567 190.513C265.303 190.409 265.074 190.26 264.878 190.064C264.684 189.857 264.529 189.616 264.413 189.34C264.298 189.064 264.241 188.754 264.241 188.409C264.241 187.823 264.374 187.254 264.637 186.702C264.901 186.139 265.258 185.639 265.705 185.203C266.153 184.754 266.663 184.398 267.237 184.134C267.823 183.858 268.438 183.72 269.081 183.72H269.253ZM271.303 170.411C271.175 170.411 271.062 170.577 270.958 170.911C270.866 171.232 270.78 171.663 270.699 172.204C270.619 172.744 270.55 173.364 270.494 174.065C270.435 174.767 270.384 175.485 270.337 176.22C270.303 176.956 270.274 177.686 270.252 178.41C270.241 179.123 270.235 179.772 270.235 180.358C270.235 181.036 270.262 181.777 270.321 182.582C270.378 183.375 270.47 184.168 270.595 184.961C270.768 184.409 270.946 183.789 271.13 183.099C271.315 182.398 271.475 181.651 271.612 180.858C271.761 180.053 271.883 179.209 271.973 178.324C272.065 177.427 272.112 176.496 272.112 175.531C272.112 174.738 272.094 174.025 272.059 173.393C272.026 172.761 271.973 172.227 271.904 171.79C271.847 171.341 271.767 171.003 271.663 170.773C271.561 170.531 271.44 170.411 271.303 170.411ZM267.1 189.616C267.456 189.616 267.772 189.541 268.048 189.392C268.322 189.231 268.569 189.036 268.787 188.806C269.006 188.564 269.194 188.3 269.357 188.013C269.518 187.725 269.661 187.449 269.786 187.185C269.672 186.771 269.58 186.346 269.512 185.909C269.441 185.461 269.379 184.99 269.322 184.496C269.149 184.427 268.959 184.392 268.754 184.392C268.156 184.392 267.641 184.49 267.204 184.685C266.778 184.869 266.428 185.111 266.153 185.409C265.877 185.708 265.671 186.042 265.532 186.409C265.407 186.777 265.344 187.139 265.344 187.496C265.344 188.105 265.505 188.61 265.826 189.013C266.159 189.415 266.582 189.616 267.1 189.616ZM283.702 191.03C283.312 191.03 282.962 190.995 282.652 190.926C282.352 190.846 282.094 190.714 281.876 190.53C281.67 190.334 281.51 190.076 281.394 189.754C281.29 189.432 281.239 189.03 281.239 188.547C281.239 188.248 281.257 187.766 281.29 187.099C281.325 186.421 281.365 185.565 281.412 184.53C281.457 183.496 281.498 182.289 281.531 180.91C281.566 179.531 281.584 177.985 281.584 176.272C281.584 175.433 281.578 174.629 281.566 173.859C281.566 173.077 281.561 172.387 281.549 171.79C281.537 171.181 281.525 170.692 281.515 170.324C281.515 169.945 281.515 169.738 281.515 169.704C281.515 169.612 281.525 169.531 281.549 169.462C281.584 169.393 281.647 169.33 281.739 169.273C281.807 169.238 281.888 169.192 281.98 169.135C282.084 169.066 282.186 169.031 282.289 169.031C282.417 169.031 282.513 169.066 282.583 169.135C282.652 169.192 282.703 169.301 282.738 169.462C282.783 169.612 282.819 169.876 282.84 170.255C282.864 170.623 282.875 171.14 282.875 171.807C282.887 172.462 282.893 173.313 282.893 174.359C282.893 175.324 282.869 176.324 282.824 177.358C282.777 178.393 282.721 179.41 282.652 180.41C282.593 181.41 282.525 182.369 282.444 183.289C282.376 184.208 282.307 185.036 282.239 185.772C282.18 186.507 282.129 187.122 282.084 187.616C282.037 188.099 282.013 188.409 282.013 188.547C282.013 188.834 282.072 189.099 282.186 189.34C282.301 189.57 282.45 189.771 282.634 189.944C282.828 190.116 283.048 190.254 283.289 190.357C283.53 190.449 283.777 190.495 284.029 190.495C284.511 190.495 284.952 190.375 285.356 190.133C285.767 189.88 286.124 189.57 286.422 189.202C286.722 188.823 286.951 188.415 287.112 187.978C287.284 187.53 287.37 187.11 287.37 186.72C287.37 186.111 287.216 185.611 286.906 185.22C286.606 184.829 286.199 184.634 285.683 184.634C285.178 184.634 284.747 184.754 284.39 184.996C284.047 185.237 283.759 185.53 283.53 185.875C283.312 186.22 283.152 186.582 283.048 186.961C282.944 187.34 282.893 187.674 282.893 187.961C282.893 188.064 282.893 188.145 282.893 188.202C282.905 188.248 282.926 188.34 282.962 188.478C282.995 188.628 282.991 188.731 282.944 188.788C282.899 188.846 282.834 188.863 282.754 188.84C282.685 188.817 282.617 188.748 282.548 188.633C282.48 188.518 282.444 188.363 282.444 188.168C282.444 187.685 282.548 187.174 282.754 186.633C282.962 186.093 283.242 185.599 283.598 185.151C283.955 184.691 284.374 184.312 284.856 184.013C285.35 183.703 285.871 183.548 286.422 183.548C286.722 183.548 286.992 183.616 287.233 183.754C287.474 183.881 287.674 184.065 287.835 184.306C288.007 184.536 288.138 184.806 288.231 185.116C288.323 185.415 288.37 185.737 288.37 186.082C288.37 186.668 288.236 187.254 287.972 187.84C287.721 188.426 287.376 188.955 286.939 189.426C286.514 189.898 286.02 190.283 285.458 190.581C284.896 190.88 284.31 191.03 283.702 191.03ZM296.36 187.426C296.337 187.507 296.245 187.725 296.084 188.082C295.935 188.426 295.724 188.8 295.447 189.202C295.183 189.593 294.861 189.949 294.483 190.271C294.115 190.581 293.695 190.737 293.225 190.737C292.618 190.737 292.065 190.507 291.571 190.047C291.078 189.576 290.654 188.915 290.298 188.064C289.953 187.202 289.684 186.162 289.489 184.944C289.304 183.726 289.212 182.364 289.212 180.858C289.212 180.031 289.242 179.163 289.298 178.255C289.357 177.335 289.447 176.433 289.575 175.548C289.7 174.663 289.855 173.818 290.039 173.014C290.235 172.209 290.464 171.502 290.729 170.893C290.993 170.284 291.297 169.801 291.642 169.445C291.997 169.077 292.387 168.893 292.812 168.893C293.443 168.893 293.903 169.279 294.189 170.048C294.489 170.819 294.638 172.008 294.638 173.617C294.638 174.56 294.569 175.617 294.43 176.789C294.293 177.95 294.058 179.14 293.725 180.358C293.288 181.898 292.829 183.214 292.347 184.306C291.877 185.386 291.475 186.248 291.142 186.892C291.268 187.34 291.405 187.748 291.556 188.116C291.716 188.484 291.893 188.806 292.089 189.082C292.285 189.346 292.496 189.553 292.726 189.702C292.955 189.852 293.208 189.926 293.484 189.926C293.829 189.926 294.15 189.823 294.448 189.616C294.748 189.409 295.01 189.168 295.24 188.892C295.483 188.616 295.688 188.334 295.861 188.047C296.033 187.76 296.164 187.53 296.256 187.358L296.36 187.426ZM290.263 179.651C290.263 180.134 290.274 180.657 290.298 181.22C290.333 181.772 290.378 182.335 290.435 182.91C290.494 183.484 290.562 184.059 290.643 184.634C290.735 185.208 290.842 185.76 290.97 186.289C291.211 185.783 291.491 185.134 291.812 184.341C292.146 183.548 292.463 182.657 292.761 181.668C293.07 180.668 293.329 179.588 293.535 178.427C293.754 177.266 293.862 176.065 293.862 174.824C293.862 174.043 293.829 173.33 293.76 172.686C293.701 172.031 293.609 171.474 293.484 171.014C293.358 170.543 293.196 170.181 293.002 169.928C292.818 169.663 292.6 169.531 292.347 169.531C292.106 169.531 291.889 169.704 291.693 170.048C291.497 170.382 291.319 170.824 291.158 171.376C291.009 171.928 290.878 172.56 290.762 173.272C290.649 173.985 290.551 174.715 290.47 175.462C290.402 176.209 290.349 176.95 290.315 177.686C290.28 178.41 290.263 179.065 290.263 179.651ZM298.874 190.081C299.151 190.081 299.419 190.024 299.684 189.909C299.948 189.783 300.183 189.605 300.389 189.375C300.597 189.133 300.757 188.84 300.871 188.495C300.998 188.151 301.061 187.748 301.061 187.289C301.061 186.909 301.016 186.553 300.924 186.22C300.832 185.875 300.695 185.576 300.51 185.323C300.338 185.07 300.109 184.869 299.821 184.72C299.546 184.57 299.219 184.496 298.839 184.496C298.576 184.496 298.312 184.547 298.047 184.651C297.783 184.743 297.548 184.898 297.342 185.116C297.134 185.323 296.968 185.593 296.842 185.927C296.715 186.248 296.652 186.639 296.652 187.099C296.652 187.467 296.699 187.829 296.789 188.185C296.882 188.53 297.015 188.846 297.187 189.133C297.369 189.421 297.601 189.65 297.875 189.823C298.163 189.995 298.496 190.081 298.874 190.081ZM298.271 190.961C297.514 190.961 296.893 190.714 296.411 190.219C295.929 189.714 295.688 188.984 295.688 188.03C295.688 187.386 295.81 186.794 296.051 186.254C296.292 185.703 296.601 185.231 296.98 184.841C297.369 184.438 297.801 184.128 298.271 183.909C298.743 183.691 299.202 183.582 299.648 183.582C300.373 183.582 300.953 183.829 301.388 184.323C301.825 184.817 302.043 185.547 302.043 186.513C302.043 187.156 301.929 187.748 301.698 188.289C301.48 188.829 301.188 189.3 300.82 189.702C300.463 190.093 300.062 190.403 299.615 190.633C299.166 190.852 298.72 190.961 298.271 190.961ZM309.191 183.582C309.512 183.582 309.781 183.605 310 183.651C310.218 183.697 310.39 183.76 310.515 183.841C310.643 183.909 310.729 183.99 310.774 184.082C310.831 184.162 310.86 184.243 310.86 184.323C310.86 184.45 310.798 184.593 310.67 184.754C310.557 184.915 310.453 184.996 310.361 184.996C310.316 184.996 310.253 184.979 310.173 184.944C310.102 184.898 309.994 184.858 309.845 184.823C309.706 184.777 309.528 184.737 309.31 184.703C309.105 184.657 308.84 184.634 308.519 184.634C307.198 184.634 306.177 184.927 305.452 185.513C304.729 186.088 304.369 186.881 304.369 187.892C304.369 188.064 304.402 188.254 304.471 188.461C304.551 188.668 304.666 188.857 304.815 189.03C304.976 189.202 305.178 189.352 305.419 189.478C305.672 189.593 305.975 189.65 306.332 189.65C307.008 189.65 307.582 189.524 308.054 189.271C308.536 189.018 308.938 188.731 309.259 188.409C309.259 188.352 309.265 188.3 309.277 188.254C309.287 188.208 309.305 188.156 309.328 188.099C309.408 187.708 309.512 187.346 309.638 187.013C309.775 186.668 309.92 186.375 310.069 186.133C310.218 185.881 310.367 185.685 310.515 185.547C310.666 185.409 310.792 185.34 310.896 185.34C311.021 185.34 311.09 185.381 311.101 185.461C311.125 185.542 311.137 185.611 311.137 185.668C311.137 185.875 311.015 186.22 310.774 186.702C310.545 187.174 310.229 187.674 309.828 188.202C309.736 188.754 309.644 189.449 309.551 190.288C309.459 191.127 309.373 192.087 309.293 193.168C309.212 194.248 309.144 195.432 309.087 196.719C309.04 198.018 309.018 199.391 309.018 200.839C309.018 202.046 309.04 203.207 309.087 204.322C309.132 205.448 309.179 206.442 309.224 207.304C309.281 208.166 309.334 208.862 309.379 209.39C309.426 209.931 309.448 210.224 309.448 210.27C309.448 210.43 309.432 210.552 309.397 210.632C309.373 210.723 309.316 210.815 309.224 210.907C309.156 210.976 309.069 211.05 308.966 211.131C308.873 211.211 308.777 211.252 308.674 211.252C308.536 211.252 308.438 211.207 308.382 211.115C308.311 211.035 308.237 210.868 308.156 210.615C308.076 210.362 308.001 209.936 307.933 209.339C307.876 208.753 307.823 207.948 307.778 206.925C307.731 205.902 307.71 204.569 307.71 202.925C307.71 201.477 307.755 200.075 307.847 198.719C307.939 197.374 308.054 196.104 308.192 194.909C308.34 193.725 308.501 192.627 308.674 191.616C308.846 190.616 309.007 189.737 309.156 188.978C308.674 189.461 308.139 189.869 307.555 190.202C306.981 190.536 306.365 190.702 305.711 190.702C305.413 190.702 305.119 190.662 304.833 190.581C304.557 190.489 304.31 190.352 304.092 190.168C303.887 189.984 303.72 189.754 303.593 189.478C303.467 189.202 303.403 188.88 303.403 188.513C303.403 188.018 303.542 187.484 303.816 186.909C304.104 186.323 304.5 185.789 305.005 185.306C305.523 184.812 306.136 184.404 306.847 184.082C307.561 183.749 308.34 183.582 309.191 183.582ZM310.155 186.892C310.108 186.949 310.069 187.036 310.033 187.151C310 187.266 309.965 187.404 309.932 187.564C309.977 187.507 310.016 187.461 310.051 187.426C310.086 187.381 310.114 187.34 310.137 187.306C310.161 187.26 310.178 187.22 310.188 187.185C310.235 187.024 310.269 186.898 310.292 186.806C310.316 186.725 310.321 186.685 310.31 186.685C310.298 186.674 310.247 186.743 310.155 186.892Z" fill="white"/>
<path d="M190.203 155.86H354.797" stroke="white" stroke-width="1.5"/>
<path d="M137.297 115.038C145.955 115.038 152.973 110.253 152.973 104.351C152.973 98.4489 145.955 93.6643 137.297 93.6643C128.64 93.6643 121.622 98.4489 121.622 104.351C121.622 110.253 128.64 115.038 137.297 115.038Z" fill="white"/>
<path d="M407.703 115.038C399.045 115.038 392.027 110.253 392.027 104.351C392.027 98.449 399.045 93.6644 407.703 93.6644C416.36 93.6644 423.378 98.449 423.378 104.351C423.378 110.253 416.36 115.038 407.703 115.038Z" fill="white"/>
<path d="M411.622 47.0315H368.514V70.3479H411.622V47.0315Z" fill="#9B1717"/>
</g>
<defs>
<filter id="filter0_d_6_17" x="165.327" y="75.804" width="212.636" height="39.3846" filterUnits="userSpaceOnUse" color-interpolation-filters="sRGB">
<feFlood flood-opacity="0" result="BackgroundImageFix"/>
<feColorMatrix in="SourceAlpha" type="matrix" values="0 0 0 0 0 0 0 0 0 0 0 0 0 0 0 0 0 0 127 0" result="hardAlpha"/>
<feOffset dy="4"/>
<feGaussianBlur stdDeviation="2"/>
<feComposite in2="hardAlpha" operator="out"/>
<feColorMatrix type="matrix" values="0 0 0 0 0 0 0 0 0 0 0 0 0 0 0 0 0 0 0.25 0"/>
<feBlend mode="normal" in2="BackgroundImageFix" result="effect1_dropShadow_6_17"/>
<feBlend mode="normal" in="SourceGraphic" in2="effect1_dropShadow_6_17" result="shape"/>
</filter>
<clipPath id="clip0_6_17">
<rect width="435" height="204" fill="white" transform="translate(55 14)"/>
</clipPath>
</defs>
</svg>
