<svg width="222" height="104" viewBox="0 0 222 104" fill="none" xmlns="http://www.w3.org/2000/svg">
<rect width="222" height="104" fill="#9B1717"/>
<g filter="url(#filter0_d_10_121)">
<path d="M65.3863 47.1879C63.8503 47.1879 62.5489 46.8466 61.4823 46.1639C60.4369 45.4599 59.6476 44.5213 59.1143 43.3479C58.6023 42.1533 58.3463 40.8199 58.3463 39.3479C58.3463 37.8759 58.6023 36.5533 59.1143 35.3799C59.6476 34.1853 60.4369 33.2466 61.4823 32.5639C62.5489 31.8599 63.8503 31.5079 65.3863 31.5079C67.7329 31.5079 69.2796 31.8813 70.0263 32.6279C70.3889 32.9906 70.6129 33.4386 70.6983 33.9719C70.7836 34.4839 70.8263 35.4226 70.8263 36.7879H70.1863C70.1009 35.4653 69.6849 34.4733 68.9383 33.8119C68.1916 33.1293 67.2209 32.7879 66.0263 32.7879C64.4903 32.7879 63.3276 33.3959 62.5383 34.6119C61.7703 35.8279 61.3863 37.4066 61.3863 39.3479C61.3863 41.2893 61.7703 42.8679 62.5383 44.0839C63.3276 45.2999 64.4903 45.9079 66.0263 45.9079C67.1143 45.9079 68.0103 45.7053 68.7143 45.2999C69.4183 44.8733 70.0689 44.2226 70.6663 43.3479L71.3063 43.8279C70.6023 45.0226 69.7703 45.8866 68.8103 46.4199C67.8503 46.9319 66.7089 47.1879 65.3863 47.1879ZM78.903 33.1079H77.303C76.3003 33.1079 75.4897 33.3959 74.871 33.9719C74.2523 34.5266 73.943 35.3053 73.943 36.3079H73.303V34.3879C73.303 32.6813 74.103 31.8279 75.703 31.8279H87.063V33.1079H81.783V46.8679H78.903V33.1079ZM90.2833 35.6679C90.2833 34.5799 90.1339 33.7799 89.8353 33.2679C89.5366 32.7346 88.9393 32.4679 88.0433 32.4679H87.5633V31.8279H90.2833C91.0726 31.8279 91.6593 31.9346 92.0433 32.1479C92.4486 32.3399 92.7366 32.7026 92.9073 33.2359C93.0779 33.7693 93.1633 34.5799 93.1633 35.6679V43.9879L99.8833 31.8279H102.763V46.8679H99.8833V34.7079L93.1633 46.8679H90.2833V35.6679ZM125.287 47.5079C123.388 47.5079 122.033 47.0493 121.222 46.1319C120.412 45.1933 120.007 43.8386 120.007 42.0679V35.1879L114.727 46.8679H114.087L108.647 34.8679V46.8679H107.367V31.8279H110.407L115.207 42.3879L120.007 31.8279H122.887V42.0679C122.887 43.3266 123.111 44.4466 123.559 45.4279C124.028 46.3879 124.604 46.8679 125.287 46.8679V47.5079ZM134.004 47.1879C132.553 47.1879 131.326 46.8466 130.324 46.1639C129.321 45.4599 128.564 44.5213 128.052 43.3479C127.54 42.1533 127.284 40.8199 127.284 39.3479C127.284 37.8973 127.54 36.5746 128.052 35.3799C128.564 34.1853 129.3 33.2466 130.26 32.5639C131.241 31.8599 132.382 31.5079 133.684 31.5079C135.838 31.5079 137.438 32.1159 138.484 33.3319C139.55 34.5266 140.084 36.2653 140.084 38.5479L140.02 39.8279H130.324C130.324 41.6199 130.708 43.0813 131.476 44.2119C132.244 45.3426 133.3 45.9079 134.644 45.9079C135.646 45.9079 136.489 45.6946 137.172 45.2679C137.876 44.8413 138.526 44.2013 139.124 43.3479L139.764 43.8279C139.06 45.0013 138.238 45.8546 137.3 46.3879C136.361 46.9213 135.262 47.1879 134.004 47.1879ZM137.044 38.5479C137.044 36.6706 136.766 35.2413 136.212 34.2599C135.657 33.2786 134.814 32.7879 133.684 32.7879C133.044 32.7879 132.468 33.0439 131.956 33.5559C131.444 34.0466 131.038 34.7293 130.74 35.6039C130.462 36.4786 130.324 37.4599 130.324 38.5479H137.044ZM144.221 35.6679C144.221 34.5799 144.071 33.7799 143.773 33.2679C143.474 32.7346 142.877 32.4679 141.981 32.4679H141.501V31.8279H144.221C145.01 31.8279 145.597 31.9346 145.981 32.1479C146.386 32.3399 146.674 32.7026 146.845 33.2359C147.015 33.7693 147.101 34.5799 147.101 35.6679V45.5879H152.061V31.8279H154.941V45.5879H159.901V31.8279H162.781V46.8679H144.221V35.6679Z" fill="white"/>
</g>
<path d="M45.023 27.24C44.0417 27.24 43.2523 26.9627 42.655 26.408C42.1003 25.8107 41.823 25.0213 41.823 24.04C41.823 23.0587 42.1003 22.2907 42.655 21.736C43.2523 21.1387 44.0417 20.84 45.023 20.84C46.0043 20.84 46.7723 21.1387 47.327 21.736C47.9243 22.2907 48.223 23.0587 48.223 24.04C48.223 25.0213 47.9243 25.8107 47.327 26.408C46.7723 26.9627 46.0043 27.24 45.023 27.24ZM54.879 27.24C53.8977 27.24 53.1083 26.9627 52.511 26.408C51.9563 25.8107 51.679 25.0213 51.679 24.04C51.679 23.0587 51.9563 22.2907 52.511 21.736C53.1083 21.1387 53.8977 20.84 54.879 20.84C55.8603 20.84 56.6283 21.1387 57.183 21.736C57.7803 22.2907 58.079 23.0587 58.079 24.04C58.079 25.0213 57.7803 25.8107 57.183 26.408C56.6283 26.9627 55.8603 27.24 54.879 27.24ZM52.831 73C51.2523 73 50.0577 72.808 49.247 72.424C48.479 71.9973 47.9243 71.2507 47.583 70.184C47.2417 69.1173 47.071 67.496 47.071 65.32V30.76H52.831V65.32C52.831 67.496 53.1297 69.1173 53.727 70.184C54.3243 71.208 55.519 71.72 57.311 71.72H58.591V73H52.831Z" fill="white"/>
<path d="M176.977 27.24C177.958 27.24 178.748 26.9627 179.345 26.408C179.9 25.8107 180.177 25.0213 180.177 24.04C180.177 23.0587 179.9 22.2907 179.345 21.736C178.748 21.1387 177.958 20.84 176.977 20.84C175.996 20.84 175.228 21.1387 174.673 21.736C174.076 22.2907 173.777 23.0587 173.777 24.04C173.777 25.0213 174.076 25.8107 174.673 26.408C175.228 26.9627 175.996 27.24 176.977 27.24ZM167.121 27.24C168.102 27.24 168.892 26.9627 169.489 26.408C170.044 25.8107 170.321 25.0213 170.321 24.04C170.321 23.0587 170.044 22.2907 169.489 21.736C168.892 21.1387 168.102 20.84 167.121 20.84C166.14 20.84 165.372 21.1387 164.817 21.736C164.22 22.2907 163.921 23.0587 163.921 24.04C163.921 25.0213 164.22 25.8107 164.817 26.408C165.372 26.9627 166.14 27.24 167.121 27.24ZM169.169 73C170.748 73 171.942 72.808 172.753 72.424C173.521 71.9973 174.076 71.2507 174.417 70.184C174.758 69.1173 174.929 67.496 174.929 65.32V30.76H169.169V65.32C169.169 67.496 168.87 69.1173 168.273 70.184C167.676 71.208 166.481 71.72 164.689 71.72H163.409V73H169.169Z" fill="white"/>
<path d="M57.872 67.8072C57.4387 67.8072 56.962 67.7205 56.442 67.5472V67.0272C56.9793 66.9752 57.43 66.7672 57.794 66.4032C58.158 66.0392 58.5307 65.5538 58.912 64.9472L60.472 62.2172C59.64 62.0785 58.9293 61.7145 58.34 61.1252C57.768 60.5185 57.482 59.7558 57.482 58.8372C57.482 56.4972 59.2153 55.3272 62.682 55.3272H68.792V55.8472C68.064 55.8472 67.5787 56.0638 67.336 56.4972C67.0933 56.9132 66.972 57.5632 66.972 58.4472V67.5472H64.632V62.3472H62.604L61.044 65.4672C60.628 66.2818 60.1687 66.8798 59.666 67.2612C59.1807 67.6252 58.5827 67.8072 57.872 67.8072ZM62.942 61.4372C63.202 61.4372 63.4967 61.4112 63.826 61.3592C64.1553 61.3072 64.424 61.2465 64.632 61.1772V56.4972C64.424 56.4278 64.1553 56.3672 63.826 56.3152C63.4967 56.2632 63.202 56.2372 62.942 56.2372C60.9487 56.2372 59.952 57.1038 59.952 58.8372C59.952 60.5705 60.9487 61.4372 62.942 61.4372ZM82.6439 67.8072C81.3959 67.8072 80.3386 67.5298 79.4719 66.9752C78.6226 66.4032 77.9812 65.6405 77.5479 64.6872C77.1319 63.7165 76.9239 62.6332 76.9239 61.4372C76.9239 60.2412 77.1319 59.1665 77.5479 58.2132C77.9812 57.2425 78.6226 56.4798 79.4719 55.9252C80.3386 55.3532 81.3959 55.0672 82.6439 55.0672C84.5506 55.0672 85.8072 55.3705 86.4139 55.9772C86.7086 56.2718 86.8906 56.6358 86.9599 57.0692C87.0292 57.4852 87.0639 58.2478 87.0639 59.3572H86.5439C86.4746 58.2825 86.1366 57.4765 85.5299 56.9392C84.9232 56.3845 84.1346 56.1072 83.1639 56.1072C81.9159 56.1072 80.9712 56.6012 80.3299 57.5892C79.7059 58.5772 79.3939 59.8598 79.3939 61.4372C79.3939 63.0145 79.7059 64.2972 80.3299 65.2852C80.9712 66.2732 81.9159 66.7672 83.1639 66.7672C84.0479 66.7672 84.7759 66.6025 85.3479 66.2732C85.9199 65.9265 86.4486 65.3978 86.9339 64.6872L87.4539 65.0772C86.8819 66.0478 86.2059 66.7498 85.4259 67.1832C84.6459 67.5992 83.7186 67.8072 82.6439 67.8072ZM99.7363 67.8072C98.3323 67.8072 97.0756 67.1138 95.9663 65.7272L92.9763 61.9572V67.5472H90.6363V58.4472C90.6363 57.5632 90.5149 56.9132 90.2723 56.4972C90.0296 56.0638 89.5443 55.8472 88.8163 55.8472H88.2963V55.3272H90.6363C91.2776 55.3272 91.7543 55.4138 92.0663 55.5872C92.3956 55.7432 92.6296 56.0378 92.7683 56.4712C92.9069 56.9045 92.9763 57.5632 92.9763 58.4472V61.5672L96.2263 57.0172C96.6249 56.4625 97.0843 56.0465 97.6043 55.7692C98.1416 55.4745 98.8089 55.3272 99.6063 55.3272H100.256V55.9772C99.2509 55.9772 98.4709 56.3672 97.9163 57.1472L95.0563 61.1772L98.0463 64.9472C98.5316 65.5712 99.0083 66.0565 99.4763 66.4032C99.9616 66.7498 100.482 66.9665 101.036 67.0532V67.5472C100.655 67.7205 100.222 67.8072 99.7363 67.8072ZM106.03 67.8072C105.475 67.8072 104.912 67.6945 104.34 67.4692C103.768 67.2265 103.274 66.8365 102.858 66.2992C102.459 65.7618 102.26 65.0512 102.26 64.1672C102.26 62.8498 102.867 61.9138 104.08 61.3592C105.311 60.8045 106.914 60.5272 108.89 60.5272H109.67C109.67 58.8285 109.436 57.6672 108.968 57.0432C108.5 56.4192 107.824 56.1072 106.94 56.1072C106.16 56.1072 105.536 56.2718 105.068 56.6012C104.6 56.9305 104.271 57.5025 104.08 58.3172H102.91C102.91 57.7278 102.945 57.2685 103.014 56.9392C103.083 56.5925 103.265 56.2718 103.56 55.9772C103.872 55.6652 104.383 55.4398 105.094 55.3012C105.822 55.1452 106.611 55.0672 107.46 55.0672C108.864 55.0672 109.973 55.4485 110.788 56.2112C111.603 56.9565 112.01 58.3952 112.01 60.5272V67.5472H110.71L109.8 66.3772H109.67C109.358 66.7758 108.899 67.1138 108.292 67.3912C107.685 67.6685 106.931 67.8072 106.03 67.8072ZM107.2 66.6372C107.772 66.6372 108.249 66.4985 108.63 66.2212C109.011 65.9438 109.358 65.5625 109.67 65.0772V61.5672H108.89C107.607 61.5672 106.593 61.8098 105.848 62.2952C105.103 62.7632 104.73 63.3872 104.73 64.1672C104.73 64.9645 104.964 65.5798 105.432 66.0132C105.917 66.4292 106.507 66.6372 107.2 66.6372ZM119.25 67.8072C118.158 67.8072 117.248 67.6252 116.52 67.2612C115.809 66.8972 115.202 66.3858 114.7 65.7272L115.22 65.3372C115.653 65.7705 116.13 66.1172 116.65 66.3772C117.187 66.6372 117.88 66.7672 118.73 66.7672C120.896 66.7672 121.98 65.9438 121.98 64.2972C121.98 62.6505 120.766 61.8272 118.34 61.8272H117.17V60.7872H118.34C119.397 60.7872 120.203 60.5965 120.758 60.2152C121.312 59.8165 121.59 59.2272 121.59 58.4472C121.59 57.7018 121.347 57.1298 120.862 56.7312C120.376 56.3152 119.752 56.1072 118.99 56.1072C118.036 56.1072 117.248 56.3585 116.624 56.8612C116 57.3465 115.662 58.0052 115.61 58.8372H115.09C115.09 57.9878 115.124 57.3725 115.194 56.9912C115.263 56.6098 115.445 56.2718 115.74 55.9772C116.346 55.3705 117.56 55.0672 119.38 55.0672C120.714 55.0672 121.824 55.3358 122.708 55.8732C123.609 56.3932 124.06 57.2512 124.06 58.4472C124.06 59.1925 123.826 59.8078 123.358 60.2932C122.907 60.7612 122.274 61.0992 121.46 61.3072C122.413 61.4978 123.15 61.8532 123.67 62.3732C124.19 62.8932 124.45 63.5345 124.45 64.2972C124.45 66.6372 122.716 67.8072 119.25 67.8072ZM130.38 67.8072C129.825 67.8072 129.262 67.6945 128.69 67.4692C128.118 67.2265 127.624 66.8365 127.208 66.2992C126.809 65.7618 126.61 65.0512 126.61 64.1672C126.61 62.8498 127.216 61.9138 128.43 61.3592C129.66 60.8045 131.264 60.5272 133.24 60.5272H134.02C134.02 58.8285 133.786 57.6672 133.318 57.0432C132.85 56.4192 132.174 56.1072 131.29 56.1072C130.51 56.1072 129.886 56.2718 129.418 56.6012C128.95 56.9305 128.62 57.5025 128.43 58.3172H127.26C127.26 57.7278 127.294 57.2685 127.364 56.9392C127.433 56.5925 127.615 56.2718 127.91 55.9772C128.222 55.6652 128.733 55.4398 129.444 55.3012C130.172 55.1452 130.96 55.0672 131.81 55.0672C133.214 55.0672 134.323 55.4485 135.138 56.2112C135.952 56.9565 136.36 58.3952 136.36 60.5272V67.5472H135.06L134.15 66.3772H134.02C133.708 66.7758 133.248 67.1138 132.642 67.3912C132.035 67.6685 131.281 67.8072 130.38 67.8072ZM131.55 66.6372C132.122 66.6372 132.598 66.4985 132.98 66.2212C133.361 65.9438 133.708 65.5625 134.02 65.0772V61.5672H133.24C131.957 61.5672 130.943 61.8098 130.198 62.2952C129.452 62.7632 129.08 63.3872 129.08 64.1672C129.08 64.9645 129.314 65.5798 129.782 66.0132C130.267 66.4292 130.856 66.6372 131.55 66.6372ZM139.621 67.8072C139.483 67.8072 139.266 67.7812 138.971 67.7292C138.694 67.6772 138.486 67.6252 138.347 67.5732V66.9232C139.353 66.9232 140.167 66.3252 140.791 65.1292C141.415 63.9332 141.727 61.7058 141.727 58.4472C141.727 57.5632 141.597 56.9132 141.337 56.4972C141.095 56.0638 140.609 55.8472 139.881 55.8472V55.3272H150.437V67.5472H148.097V56.3672H143.521V58.4472C143.521 62.0005 143.157 64.4532 142.429 65.8052C141.719 67.1398 140.783 67.8072 139.621 67.8072ZM157.091 67.8072C156.536 67.8072 155.973 67.6945 155.401 67.4692C154.829 67.2265 154.335 66.8365 153.919 66.2992C153.52 65.7618 153.321 65.0512 153.321 64.1672C153.321 62.8498 153.927 61.9138 155.141 61.3592C156.371 60.8045 157.975 60.5272 159.951 60.5272H160.731C160.731 58.8285 160.497 57.6672 160.029 57.0432C159.561 56.4192 158.885 56.1072 158.001 56.1072C157.221 56.1072 156.597 56.2718 156.129 56.6012C155.661 56.9305 155.331 57.5025 155.141 58.3172H153.971C153.971 57.7278 154.005 57.2685 154.075 56.9392C154.144 56.5925 154.326 56.2718 154.621 55.9772C154.933 55.6652 155.444 55.4398 156.155 55.3012C156.883 55.1452 157.671 55.0672 158.521 55.0672C159.925 55.0672 161.034 55.4485 161.849 56.2112C162.663 56.9565 163.071 58.3952 163.071 60.5272V67.5472H161.771L160.861 66.3772H160.731C160.419 66.7758 159.959 67.1138 159.353 67.3912C158.746 67.6685 157.992 67.8072 157.091 67.8072ZM158.261 66.6372C158.833 66.6372 159.309 66.4985 159.691 66.2212C160.072 65.9438 160.419 65.5625 160.731 65.0772V61.5672H159.951C158.668 61.5672 157.654 61.8098 156.909 62.2952C156.163 62.7632 155.791 63.3872 155.791 64.1672C155.791 64.9645 156.025 65.5798 156.493 66.0132C156.978 66.4292 157.567 66.6372 158.261 66.6372Z" fill="white"/>
<path d="M97.0557 96.8334C96.8975 96.8334 96.7539 96.7953 96.625 96.7192C96.502 96.6489 96.3965 96.52 96.3086 96.3325C96.2266 96.145 96.1621 95.893 96.1152 95.5766C96.0742 95.2602 96.0537 94.8588 96.0537 94.3725C96.0537 93.3178 96.0537 92.4008 96.0537 91.6215C96.0537 90.8481 96.0537 90.1772 96.0537 89.6088C96.0596 89.0405 96.0625 88.5571 96.0625 88.1586C96.0625 87.7602 96.0625 87.4086 96.0625 87.1039C96.0684 86.7934 96.0713 86.5121 96.0713 86.2602C96.0713 86.0024 96.0713 85.7358 96.0713 85.4604C96.0713 85.0151 96.0889 84.5522 96.124 84.0717C96.1592 83.5912 96.2119 83.1196 96.2822 82.6567C96.3584 82.1938 96.4551 81.7543 96.5723 81.3383C96.6895 80.9223 96.8301 80.5561 96.9941 80.2397C97.1582 79.9233 97.3486 79.6743 97.5654 79.4926C97.7822 79.3051 98.0283 79.2114 98.3037 79.2114C98.4092 79.2114 98.5146 79.2465 98.6201 79.3168C98.7256 79.3813 98.8193 79.4838 98.9014 79.6245C98.9893 79.7592 99.0566 79.9291 99.1035 80.1342C99.1562 80.3393 99.1826 80.5795 99.1826 80.8549C99.1826 81.3354 99.1299 81.8246 99.0244 82.3227C98.9248 82.8207 98.793 83.31 98.6289 83.7905C98.4648 84.2709 98.2832 84.7309 98.084 85.1703C97.8848 85.6098 97.6914 86.0112 97.5039 86.3745C97.3164 86.7377 97.1436 87.0512 96.9854 87.3149C96.8271 87.5786 96.707 87.7719 96.625 87.895C96.625 87.9125 96.6221 87.936 96.6162 87.9653C96.6162 87.9887 96.6162 88.0297 96.6162 88.0883C96.6162 88.1411 96.6162 88.2172 96.6162 88.3168C96.6162 88.4106 96.6191 88.5395 96.625 88.7036C96.6426 88.8735 96.6807 89.0258 96.7393 89.1606C96.8037 89.2895 96.8799 89.4008 96.9678 89.4946C97.0615 89.5825 97.1611 89.6498 97.2666 89.6967C97.3779 89.7436 97.4893 89.767 97.6006 89.767C97.835 89.767 98.04 89.7202 98.2158 89.6264C98.3975 89.5268 98.5586 89.4037 98.6992 89.2573C98.8398 89.1049 98.9629 88.9379 99.0684 88.7563C99.1738 88.5688 99.2705 88.3871 99.3584 88.2114L99.4199 88.2465C99.3672 88.3813 99.291 88.5571 99.1914 88.7739C99.0977 88.9907 98.9746 89.2016 98.8223 89.4067C98.6758 89.6118 98.4971 89.7905 98.2861 89.9428C98.0752 90.0893 97.8291 90.1625 97.5479 90.1625C97.4658 90.1625 97.375 90.1567 97.2754 90.145C97.1816 90.1274 97.085 90.0893 96.9854 90.0307C97.1318 90.3998 97.2666 90.7602 97.3896 91.1118C97.5127 91.4692 97.6182 91.8354 97.7061 92.2104C97.7998 92.5854 97.8701 92.978 97.917 93.3881C97.9697 93.8041 97.9961 94.2582 97.9961 94.7504C97.9961 95.061 97.9697 95.3422 97.917 95.5942C97.8701 95.852 97.8057 96.0717 97.7236 96.2534C97.6416 96.4409 97.542 96.5844 97.4248 96.684C97.3076 96.7836 97.1846 96.8334 97.0557 96.8334ZM96.6602 85.4077C96.6602 85.5776 96.6572 85.7592 96.6514 85.9526C96.6514 86.1459 96.6484 86.3364 96.6426 86.5239C96.6367 86.7055 96.6309 86.8813 96.625 87.0512C96.625 87.2211 96.625 87.3676 96.625 87.4907C96.7246 87.3032 96.8447 87.0717 96.9854 86.7963C97.1318 86.5209 97.2812 86.2192 97.4336 85.8911C97.5918 85.5571 97.7441 85.1996 97.8906 84.8188C98.043 84.4379 98.1777 84.0483 98.2949 83.6498C98.418 83.2514 98.5146 82.8471 98.585 82.437C98.6611 82.0268 98.6992 81.6254 98.6992 81.2328C98.6992 81.0219 98.6875 80.8227 98.6641 80.6352C98.6465 80.4418 98.6084 80.2748 98.5498 80.1342C98.4971 79.9936 98.4209 79.8823 98.3213 79.8002C98.2275 79.7123 98.1016 79.6684 97.9434 79.6684C97.7793 79.6684 97.6328 79.7446 97.5039 79.8969C97.375 80.0434 97.2637 80.2514 97.1699 80.5209C97.0762 80.7846 96.9971 81.0981 96.9326 81.4614C96.8682 81.8246 96.8154 82.2202 96.7744 82.6479C96.7334 83.0698 96.7041 83.518 96.6865 83.9926C96.6689 84.4614 96.6602 84.933 96.6602 85.4077ZM97.6357 94.4428C97.6357 93.9799 97.6064 93.5375 97.5479 93.1157C97.4893 92.6938 97.4131 92.2866 97.3193 91.894C97.2256 91.5073 97.1172 91.1293 96.9941 90.7602C96.8711 90.3969 96.748 90.0395 96.625 89.6879V91.1821C96.625 91.6039 96.6221 92.0258 96.6162 92.4477C96.6162 92.8754 96.6191 93.2856 96.625 93.6782C96.6309 94.0707 96.6396 94.437 96.6514 94.7768C96.6689 95.1166 96.6924 95.4125 96.7217 95.6645C96.751 95.9164 96.792 96.1127 96.8447 96.2534C96.9033 96.3998 96.9736 96.4731 97.0557 96.4731C97.1436 96.4731 97.2227 96.4379 97.293 96.3676C97.3691 96.3032 97.4307 96.1918 97.4775 96.0336C97.5303 95.8813 97.5684 95.6733 97.5918 95.4096C97.6211 95.1518 97.6357 94.8295 97.6357 94.4428ZM100.606 89.767C100.747 89.767 100.885 89.7377 101.02 89.6791C101.154 89.6147 101.274 89.5239 101.38 89.4067C101.485 89.2836 101.567 89.1342 101.626 88.9584C101.69 88.7827 101.723 88.5776 101.723 88.3432C101.723 88.1498 101.699 87.9682 101.652 87.7983C101.605 87.6225 101.535 87.4702 101.441 87.3412C101.354 87.2123 101.236 87.1098 101.09 87.0336C100.949 86.9575 100.782 86.9194 100.589 86.9194C100.454 86.9194 100.319 86.9457 100.185 86.9985C100.05 87.0453 99.9297 87.1245 99.8242 87.2358C99.7188 87.3412 99.6338 87.4789 99.5693 87.6489C99.5049 87.8129 99.4727 88.0121 99.4727 88.2465C99.4727 88.434 99.4961 88.6186 99.543 88.8002C99.5898 88.976 99.6572 89.1371 99.7451 89.2836C99.8389 89.4301 99.9561 89.5473 100.097 89.6352C100.243 89.7231 100.413 89.767 100.606 89.767ZM100.299 90.2153C99.9121 90.2153 99.5957 90.0893 99.3496 89.8373C99.1035 89.5795 98.9805 89.2075 98.9805 88.7211C98.9805 88.393 99.042 88.0912 99.165 87.8159C99.2881 87.5346 99.4463 87.2944 99.6396 87.0952C99.8389 86.8901 100.059 86.7319 100.299 86.6205C100.539 86.5092 100.773 86.4536 101.002 86.4536C101.371 86.4536 101.667 86.5795 101.89 86.8315C102.112 87.0834 102.224 87.4555 102.224 87.9477C102.224 88.2758 102.165 88.5776 102.048 88.853C101.937 89.1284 101.787 89.3686 101.6 89.5737C101.418 89.7729 101.213 89.9311 100.984 90.0483C100.756 90.1596 100.527 90.2153 100.299 90.2153ZM104.579 89.767C104.72 89.767 104.857 89.7377 104.992 89.6791C105.127 89.6147 105.247 89.5239 105.353 89.4067C105.458 89.2836 105.54 89.1342 105.599 88.9584C105.663 88.7827 105.695 88.5776 105.695 88.3432C105.695 88.1498 105.672 87.9682 105.625 87.7983C105.578 87.6225 105.508 87.4702 105.414 87.3412C105.326 87.2123 105.209 87.1098 105.062 87.0336C104.922 86.9575 104.755 86.9194 104.562 86.9194C104.427 86.9194 104.292 86.9457 104.157 86.9985C104.022 87.0453 103.902 87.1245 103.797 87.2358C103.691 87.3412 103.606 87.4789 103.542 87.6489C103.478 87.8129 103.445 88.0121 103.445 88.2465C103.445 88.434 103.469 88.6186 103.516 88.8002C103.562 88.976 103.63 89.1371 103.718 89.2836C103.812 89.4301 103.929 89.5473 104.069 89.6352C104.216 89.7231 104.386 89.767 104.579 89.767ZM104.271 90.2153C103.885 90.2153 103.568 90.0893 103.322 89.8373C103.076 89.5795 102.953 89.2075 102.953 88.7211C102.953 88.393 103.015 88.0912 103.138 87.8159C103.261 87.5346 103.419 87.2944 103.612 87.0952C103.812 86.8901 104.031 86.7319 104.271 86.6205C104.512 86.5092 104.746 86.4536 104.975 86.4536C105.344 86.4536 105.64 86.5795 105.862 86.8315C106.085 87.0834 106.196 87.4555 106.196 87.9477C106.196 88.2758 106.138 88.5776 106.021 88.853C105.909 89.1284 105.76 89.3686 105.572 89.5737C105.391 89.7729 105.186 89.9311 104.957 90.0483C104.729 90.1596 104.5 90.2153 104.271 90.2153ZM109.343 86.5239C109.325 86.3539 109.313 86.1782 109.308 85.9965C109.308 85.8149 109.308 85.6245 109.308 85.4252C109.308 85.0034 109.316 84.561 109.334 84.0981C109.357 83.6293 109.39 83.1694 109.431 82.7182C109.478 82.267 109.533 81.8364 109.598 81.4262C109.662 81.0161 109.741 80.6557 109.835 80.3452C109.929 80.0346 110.034 79.7885 110.151 79.6069C110.269 79.4194 110.4 79.3256 110.547 79.3256C110.77 79.3256 110.934 79.5219 111.039 79.9145C111.145 80.3071 111.197 80.9135 111.197 81.7338C111.197 82.2143 111.165 82.7534 111.101 83.351C111.042 83.9428 110.937 84.5493 110.784 85.1703C110.655 85.7036 110.532 86.1723 110.415 86.5766C110.304 86.975 110.198 87.3237 110.099 87.6225C110.151 87.9037 110.216 88.1703 110.292 88.4223C110.374 88.6743 110.465 88.894 110.564 89.0815C110.664 89.269 110.775 89.4184 110.898 89.5297C111.021 89.6352 111.156 89.6879 111.303 89.6879C111.426 89.6879 111.549 89.6381 111.672 89.5385C111.795 89.4389 111.909 89.3217 112.015 89.187C112.126 89.0522 112.223 88.9145 112.305 88.7739C112.393 88.6332 112.46 88.519 112.507 88.4311L112.586 88.4662C112.586 88.4662 112.571 88.5073 112.542 88.5893C112.513 88.6713 112.469 88.7768 112.41 88.9057C112.352 89.0287 112.278 89.1635 112.19 89.31C112.108 89.4565 112.015 89.5942 111.909 89.7231C111.804 89.8461 111.687 89.9516 111.558 90.0395C111.429 90.1215 111.291 90.1625 111.145 90.1625C110.828 90.1625 110.55 90.0278 110.31 89.7582C110.069 89.4887 109.867 89.0991 109.703 88.5893C109.621 88.7768 109.519 88.9614 109.396 89.143C109.272 89.3188 109.135 89.477 108.982 89.6176C108.83 89.7524 108.66 89.8608 108.473 89.9428C108.291 90.0248 108.101 90.0659 107.901 90.0659C107.749 90.0659 107.603 90.0395 107.462 89.9868C107.327 89.934 107.21 89.8578 107.11 89.7582C107.011 89.6528 106.932 89.5297 106.873 89.3891C106.814 89.2485 106.785 89.0903 106.785 88.9145C106.785 88.6157 106.853 88.3256 106.987 88.0444C107.122 87.7573 107.304 87.5024 107.532 87.2797C107.761 87.0512 108.021 86.8696 108.314 86.7348C108.613 86.5942 108.927 86.5239 109.255 86.5239H109.343ZM110.389 79.7387C110.324 79.7387 110.266 79.8237 110.213 79.9936C110.166 80.1577 110.122 80.3774 110.081 80.6528C110.04 80.9282 110.005 81.2446 109.976 81.602C109.946 81.9594 109.92 82.3256 109.896 82.7006C109.879 83.0756 109.864 83.4477 109.853 83.8168C109.847 84.1801 109.844 84.5112 109.844 84.81C109.844 85.1557 109.858 85.5336 109.888 85.9438C109.917 86.3481 109.964 86.7524 110.028 87.1567C110.116 86.8754 110.207 86.559 110.301 86.2075C110.395 85.85 110.477 85.4692 110.547 85.0649C110.623 84.6547 110.685 84.2241 110.731 83.7729C110.778 83.3159 110.802 82.8412 110.802 82.3491C110.802 81.9448 110.793 81.5815 110.775 81.2592C110.758 80.937 110.731 80.6645 110.696 80.4418C110.667 80.2133 110.626 80.0405 110.573 79.9233C110.521 79.8002 110.459 79.7387 110.389 79.7387ZM108.244 89.5297C108.426 89.5297 108.587 89.4916 108.728 89.4155C108.868 89.3334 108.994 89.2338 109.105 89.1166C109.217 88.9936 109.313 88.8588 109.396 88.7123C109.478 88.5659 109.551 88.4252 109.615 88.2905C109.557 88.0795 109.51 87.8627 109.475 87.6401C109.439 87.4116 109.407 87.1713 109.378 86.9194C109.29 86.8842 109.193 86.8666 109.088 86.8666C108.783 86.8666 108.52 86.9164 108.297 87.0161C108.08 87.1098 107.901 87.2328 107.761 87.3852C107.62 87.5375 107.515 87.7075 107.444 87.895C107.38 88.0825 107.348 88.267 107.348 88.4487C107.348 88.7592 107.43 89.017 107.594 89.2221C107.764 89.4272 107.98 89.5297 108.244 89.5297ZM116.717 90.2504C116.518 90.2504 116.339 90.2328 116.181 90.1977C116.028 90.1567 115.896 90.0893 115.785 89.9955C115.68 89.8959 115.598 89.7641 115.539 89.6C115.486 89.436 115.46 89.2309 115.46 88.9848C115.46 88.8325 115.469 88.5864 115.486 88.2465C115.504 87.9008 115.524 87.4643 115.548 86.937C115.571 86.4096 115.592 85.7944 115.609 85.0912C115.627 84.3881 115.636 83.6 115.636 82.727C115.636 82.2993 115.633 81.8891 115.627 81.4965C115.627 81.0981 115.624 80.7465 115.618 80.4418C115.612 80.1313 115.606 79.8823 115.601 79.6948C115.601 79.5014 115.601 79.3959 115.601 79.3784C115.601 79.3315 115.606 79.2905 115.618 79.2553C115.636 79.2202 115.668 79.1879 115.715 79.1586C115.75 79.1411 115.791 79.1176 115.838 79.0883C115.891 79.0532 115.943 79.0356 115.996 79.0356C116.061 79.0356 116.11 79.0532 116.146 79.0883C116.181 79.1176 116.207 79.1733 116.225 79.2553C116.248 79.3315 116.266 79.4662 116.277 79.6596C116.289 79.8471 116.295 80.1108 116.295 80.4506C116.301 80.7846 116.304 81.2182 116.304 81.7514C116.304 82.2436 116.292 82.7534 116.269 83.2807C116.245 83.808 116.216 84.3266 116.181 84.8364C116.151 85.3461 116.116 85.8354 116.075 86.3041C116.04 86.7729 116.005 87.1948 115.97 87.5698C115.94 87.9448 115.914 88.2582 115.891 88.5102C115.867 88.7563 115.855 88.9145 115.855 88.9848C115.855 89.1313 115.885 89.2661 115.943 89.3891C116.002 89.5063 116.078 89.6088 116.172 89.6967C116.271 89.7846 116.383 89.8549 116.506 89.9077C116.629 89.9545 116.755 89.978 116.884 89.978C117.13 89.978 117.355 89.9164 117.561 89.7934C117.771 89.6645 117.953 89.5063 118.105 89.3188C118.258 89.1254 118.375 88.9174 118.457 88.6948C118.545 88.4662 118.589 88.2524 118.589 88.0532C118.589 87.7426 118.51 87.4877 118.352 87.2885C118.199 87.0893 117.991 86.9897 117.728 86.9897C117.47 86.9897 117.25 87.0512 117.068 87.1743C116.893 87.2973 116.746 87.4467 116.629 87.6225C116.518 87.7983 116.436 87.9828 116.383 88.1762C116.33 88.3696 116.304 88.5395 116.304 88.686C116.304 88.7387 116.304 88.7797 116.304 88.809C116.31 88.8325 116.321 88.8793 116.339 88.9496C116.356 89.0258 116.354 89.0786 116.33 89.1078C116.307 89.1371 116.274 89.1459 116.233 89.1342C116.198 89.1225 116.163 89.0873 116.128 89.0287C116.093 88.9702 116.075 88.8911 116.075 88.7914C116.075 88.5453 116.128 88.2846 116.233 88.0092C116.339 87.7338 116.482 87.4819 116.664 87.2534C116.846 87.019 117.06 86.8256 117.306 86.6733C117.558 86.5151 117.824 86.436 118.105 86.436C118.258 86.436 118.396 86.4711 118.519 86.5414C118.642 86.6059 118.744 86.6996 118.826 86.8227C118.914 86.9399 118.981 87.0776 119.028 87.2358C119.075 87.3881 119.099 87.5522 119.099 87.728C119.099 88.0268 119.031 88.3256 118.896 88.6245C118.768 88.9233 118.592 89.1928 118.369 89.433C118.152 89.6733 117.9 89.8696 117.613 90.0219C117.326 90.1743 117.027 90.2504 116.717 90.2504ZM123.177 88.4135C123.165 88.4545 123.118 88.5659 123.036 88.7475C122.96 88.9233 122.852 89.1137 122.711 89.3188C122.576 89.518 122.412 89.6996 122.219 89.8637C122.031 90.0219 121.817 90.101 121.577 90.101C121.267 90.101 120.985 89.9838 120.733 89.7495C120.481 89.5092 120.265 89.1723 120.083 88.7387C119.907 88.2993 119.77 87.769 119.67 87.1479C119.576 86.5268 119.529 85.8325 119.529 85.0649C119.529 84.643 119.544 84.2006 119.573 83.7377C119.603 83.269 119.649 82.809 119.714 82.3578C119.778 81.9067 119.857 81.476 119.951 81.0659C120.051 80.6557 120.168 80.2953 120.303 79.9848C120.438 79.6743 120.593 79.4282 120.769 79.2465C120.95 79.059 121.149 78.9653 121.366 78.9653C121.688 78.9653 121.923 79.1616 122.069 79.5541C122.222 79.9467 122.298 80.5532 122.298 81.3735C122.298 81.8539 122.263 82.393 122.192 82.9907C122.122 83.5825 122.002 84.1889 121.832 84.81C121.609 85.5952 121.375 86.2661 121.129 86.8227C120.889 87.3735 120.684 87.8129 120.514 88.1411C120.578 88.3696 120.648 88.5776 120.725 88.7651C120.807 88.9526 120.897 89.1166 120.997 89.2573C121.097 89.392 121.205 89.4975 121.322 89.5737C121.439 89.6498 121.568 89.6879 121.709 89.6879C121.885 89.6879 122.049 89.6352 122.201 89.5297C122.354 89.4243 122.488 89.3012 122.605 89.1606C122.729 89.02 122.834 88.8764 122.922 88.7299C123.01 88.5834 123.077 88.4662 123.124 88.3784L123.177 88.4135ZM120.065 84.4496C120.065 84.6957 120.071 84.9623 120.083 85.2495C120.101 85.5307 120.124 85.8178 120.153 86.1108C120.183 86.4037 120.218 86.6967 120.259 86.9897C120.306 87.2827 120.361 87.5639 120.426 87.8334C120.549 87.5756 120.692 87.2446 120.856 86.8403C121.026 86.436 121.188 85.9819 121.34 85.478C121.498 84.9682 121.63 84.4174 121.735 83.8256C121.847 83.2338 121.902 82.6215 121.902 81.9887C121.902 81.5903 121.885 81.227 121.85 80.8989C121.82 80.5649 121.773 80.2807 121.709 80.0463C121.645 79.8061 121.562 79.6215 121.463 79.4926C121.369 79.3578 121.258 79.2905 121.129 79.2905C121.006 79.2905 120.895 79.3784 120.795 79.5541C120.695 79.7241 120.604 79.9496 120.522 80.2309C120.446 80.5121 120.379 80.8344 120.32 81.1977C120.262 81.561 120.212 81.933 120.171 82.3139C120.136 82.6948 120.109 83.0727 120.092 83.4477C120.074 83.8168 120.065 84.1508 120.065 84.4496ZM124.46 89.767C124.601 89.767 124.738 89.7377 124.873 89.6791C125.008 89.6147 125.128 89.5239 125.233 89.4067C125.339 89.2836 125.421 89.1342 125.479 88.9584C125.544 88.7827 125.576 88.5776 125.576 88.3432C125.576 88.1498 125.553 87.9682 125.506 87.7983C125.459 87.6225 125.389 87.4702 125.295 87.3412C125.207 87.2123 125.09 87.1098 124.943 87.0336C124.803 86.9575 124.636 86.9194 124.442 86.9194C124.308 86.9194 124.173 86.9457 124.038 86.9985C123.903 87.0453 123.783 87.1245 123.678 87.2358C123.572 87.3412 123.487 87.4789 123.423 87.6489C123.358 87.8129 123.326 88.0121 123.326 88.2465C123.326 88.434 123.35 88.6186 123.396 88.8002C123.443 88.976 123.511 89.1371 123.599 89.2836C123.692 89.4301 123.81 89.5473 123.95 89.6352C124.097 89.7231 124.267 89.767 124.46 89.767ZM124.152 90.2153C123.766 90.2153 123.449 90.0893 123.203 89.8373C122.957 89.5795 122.834 89.2075 122.834 88.7211C122.834 88.393 122.896 88.0912 123.019 87.8159C123.142 87.5346 123.3 87.2944 123.493 87.0952C123.692 86.8901 123.912 86.7319 124.152 86.6205C124.393 86.5092 124.627 86.4536 124.855 86.4536C125.225 86.4536 125.521 86.5795 125.743 86.8315C125.966 87.0834 126.077 87.4555 126.077 87.9477C126.077 88.2758 126.019 88.5776 125.901 88.853C125.79 89.1284 125.641 89.3686 125.453 89.5737C125.271 89.7729 125.066 89.9311 124.838 90.0483C124.609 90.1596 124.381 90.2153 124.152 90.2153ZM129.725 86.4536C129.889 86.4536 130.026 86.4653 130.138 86.4887C130.249 86.5121 130.337 86.5444 130.401 86.5854C130.466 86.6205 130.51 86.6616 130.533 86.7084C130.562 86.7495 130.577 86.7905 130.577 86.8315C130.577 86.8959 130.545 86.9692 130.48 87.0512C130.422 87.1332 130.369 87.1743 130.322 87.1743C130.299 87.1743 130.267 87.1655 130.226 87.1479C130.19 87.1245 130.135 87.1039 130.059 87.0864C129.988 87.0629 129.897 87.0424 129.786 87.0248C129.681 87.0014 129.546 86.9897 129.382 86.9897C128.708 86.9897 128.187 87.1391 127.817 87.4379C127.448 87.7309 127.264 88.1352 127.264 88.6508C127.264 88.7387 127.281 88.8354 127.316 88.9409C127.357 89.0463 127.416 89.143 127.492 89.2309C127.574 89.3188 127.677 89.395 127.8 89.4594C127.929 89.518 128.084 89.5473 128.266 89.5473C128.611 89.5473 128.904 89.4828 129.145 89.3539C129.391 89.225 129.596 89.0786 129.76 88.9145C129.76 88.8852 129.763 88.8588 129.769 88.8354C129.774 88.812 129.783 88.7856 129.795 88.7563C129.836 88.5571 129.889 88.3725 129.953 88.2026C130.023 88.0268 130.097 87.8774 130.173 87.7543C130.249 87.6254 130.325 87.5258 130.401 87.4555C130.478 87.3852 130.542 87.35 130.595 87.35C130.659 87.35 130.694 87.3705 130.7 87.4116C130.712 87.4526 130.718 87.4877 130.718 87.517C130.718 87.6225 130.656 87.7983 130.533 88.0444C130.416 88.2846 130.255 88.5395 130.05 88.809C130.003 89.0903 129.956 89.4448 129.909 89.8725C129.862 90.3002 129.818 90.7895 129.777 91.3403C129.736 91.8911 129.701 92.4946 129.672 93.1508C129.648 93.8129 129.637 94.5131 129.637 95.2514C129.637 95.8666 129.648 96.4584 129.672 97.0268C129.695 97.601 129.719 98.1078 129.742 98.5473C129.771 98.9868 129.798 99.3412 129.821 99.6108C129.845 99.8862 129.856 100.036 129.856 100.059C129.856 100.141 129.848 100.203 129.83 100.244C129.818 100.29 129.789 100.337 129.742 100.384C129.707 100.419 129.663 100.457 129.61 100.498C129.563 100.539 129.514 100.56 129.461 100.56C129.391 100.56 129.341 100.537 129.312 100.49C129.276 100.449 129.238 100.364 129.197 100.235C129.156 100.106 129.118 99.8891 129.083 99.5844C129.054 99.2856 129.027 98.8754 129.004 98.3539C128.98 97.8325 128.969 97.1528 128.969 96.3149C128.969 95.5766 128.992 94.8618 129.039 94.1703C129.086 93.4848 129.145 92.8373 129.215 92.228C129.291 91.6245 129.373 91.0649 129.461 90.5493C129.549 90.0395 129.631 89.5912 129.707 89.2045C129.461 89.4506 129.188 89.6586 128.89 89.8286C128.597 89.9985 128.283 90.0834 127.949 90.0834C127.797 90.0834 127.647 90.0629 127.501 90.0219C127.36 89.975 127.234 89.9047 127.123 89.811C127.018 89.7172 126.933 89.6 126.868 89.4594C126.804 89.3188 126.771 89.1547 126.771 88.9672C126.771 88.7153 126.842 88.4428 126.982 88.1498C127.129 87.851 127.331 87.5786 127.589 87.3325C127.853 87.0805 128.166 86.8725 128.529 86.7084C128.893 86.5385 129.291 86.4536 129.725 86.4536ZM130.217 88.1411C130.193 88.1703 130.173 88.2143 130.155 88.2729C130.138 88.3315 130.12 88.4018 130.103 88.4838C130.126 88.4545 130.146 88.4311 130.164 88.4135C130.182 88.3901 130.196 88.3696 130.208 88.352C130.22 88.3286 130.229 88.308 130.234 88.2905C130.258 88.2084 130.275 88.144 130.287 88.0971C130.299 88.0561 130.302 88.0356 130.296 88.0356C130.29 88.0297 130.264 88.0649 130.217 88.1411Z" fill="white"/>
<path d="M69 72.3207L153 72.3207" stroke="white" stroke-width="1.5"/>
<ellipse cx="42" cy="46.0613" rx="8" ry="5.44811" fill="white"/>
<ellipse cx="8" cy="5.44811" rx="8" ry="5.44811" transform="matrix(-1 0 0 1 188 40.6132)" fill="white"/>
<rect x="160" y="16.8396" width="22" height="11.8868" fill="#9B1717"/>
<defs>
<filter id="filter0_d_10_121" x="54.3462" y="31.5079" width="112.435" height="24" filterUnits="userSpaceOnUse" color-interpolation-filters="sRGB">
<feFlood flood-opacity="0" result="BackgroundImageFix"/>
<feColorMatrix in="SourceAlpha" type="matrix" values="0 0 0 0 0 0 0 0 0 0 0 0 0 0 0 0 0 0 127 0" result="hardAlpha"/>
<feOffset dy="4"/>
<feGaussianBlur stdDeviation="2"/>
<feComposite in2="hardAlpha" operator="out"/>
<feColorMatrix type="matrix" values="0 0 0 0 0 0 0 0 0 0 0 0 0 0 0 0 0 0 0.25 0"/>
<feBlend mode="normal" in2="BackgroundImageFix" result="effect1_dropShadow_10_121"/>
<feBlend mode="normal" in="SourceGraphic" in2="effect1_dropShadow_10_121" result="shape"/>
</filter>
</defs>
</svg>
