<svg width="222" height="104" viewBox="0 0 222 104" fill="none" xmlns="http://www.w3.org/2000/svg">
<path d="M214 0H8C3.58172 0 0 3.58172 0 8V96C0 100.418 3.58172 104 8 104H214C218.418 104 222 100.418 222 96V8C222 3.58172 218.418 0 214 0Z" fill="#9B1717"/>
<path d="M45.023 27.2401C44.0417 27.2401 43.2523 26.9628 42.655 26.4081C42.1003 25.8108 41.823 25.0214 41.823 24.0401C41.823 23.0588 42.1003 22.2908 42.655 21.7361C43.2523 21.1388 44.0417 20.8401 45.023 20.8401C46.0043 20.8401 46.7723 21.1388 47.327 21.7361C47.9243 22.2908 48.223 23.0588 48.223 24.0401C48.223 25.0214 47.9243 25.8108 47.327 26.4081C46.7723 26.9628 46.0043 27.2401 45.023 27.2401ZM54.879 27.2401C53.8977 27.2401 53.1083 26.9628 52.511 26.4081C51.9563 25.8108 51.679 25.0214 51.679 24.0401C51.679 23.0588 51.9563 22.2908 52.511 21.7361C53.1083 21.1388 53.8977 20.8401 54.879 20.8401C55.8603 20.8401 56.6283 21.1388 57.183 21.7361C57.7803 22.2908 58.079 23.0588 58.079 24.0401C58.079 25.0214 57.7803 25.8108 57.183 26.4081C56.6283 26.9628 55.8603 27.2401 54.879 27.2401ZM52.831 73.0001C51.2523 73.0001 50.0577 72.8081 49.247 72.4241C48.479 71.9974 47.9243 71.2508 47.583 70.1841C47.2417 69.1174 47.071 67.4961 47.071 65.3201V33.6401C47.071 32.0495 48.3604 30.7601 49.951 30.7601V30.7601C51.5416 30.7601 52.831 32.0495 52.831 33.6401V65.3201C52.831 67.4961 53.1297 69.1174 53.727 70.1841C54.3243 71.2081 55.519 71.7201 57.311 71.7201H57.951C58.3045 71.7201 58.591 72.0066 58.591 72.3601V72.3601C58.591 72.7136 58.3045 73.0001 57.951 73.0001H52.831Z" fill="white"/>
<path d="M176.977 27.2401C177.958 27.2401 178.748 26.9628 179.345 26.4081C179.9 25.8108 180.177 25.0214 180.177 24.0401C180.177 23.0588 179.9 22.2908 179.345 21.7361C178.748 21.1388 177.958 20.8401 176.977 20.8401C175.996 20.8401 175.228 21.1388 174.673 21.7361C174.076 22.2908 173.777 23.0588 173.777 24.0401C173.777 25.0214 174.076 25.8108 174.673 26.4081C175.228 26.9628 175.996 27.2401 176.977 27.2401ZM167.121 27.2401C168.102 27.2401 168.892 26.9628 169.489 26.4081C170.044 25.8108 170.321 25.0214 170.321 24.0401C170.321 23.0588 170.044 22.2908 169.489 21.7361C168.892 21.1388 168.102 20.8401 167.121 20.8401C166.14 20.8401 165.372 21.1388 164.817 21.7361C164.22 22.2908 163.921 23.0588 163.921 24.0401C163.921 25.0214 164.22 25.8108 164.817 26.4081C165.372 26.9628 166.14 27.2401 167.121 27.2401ZM169.169 73.0001C170.748 73.0001 171.942 72.8081 172.753 72.4241C173.521 71.9974 174.076 71.2508 174.417 70.1841C174.758 69.1174 174.929 67.4961 174.929 65.3201V33.6401C174.929 32.0495 173.64 30.7601 172.049 30.7601V30.7601C170.458 30.7601 169.169 32.0495 169.169 33.6401V65.3201C169.169 67.4961 168.87 69.1174 168.273 70.1841C167.676 71.2081 166.481 71.7201 164.689 71.7201H164.049C163.695 71.7201 163.409 72.0066 163.409 72.3601V72.3601C163.409 72.7136 163.695 73.0001 164.049 73.0001H169.169Z" fill="white"/>
<path d="M42 51.5095C46.4183 51.5095 50 49.0703 50 46.0614C50 43.0525 46.4183 40.6133 42 40.6133C37.5817 40.6133 34 43.0525 34 46.0614C34 49.0703 37.5817 51.5095 42 51.5095Z" fill="white"/>
<path d="M180 51.5095C175.582 51.5095 172 49.0703 172 46.0614C172 43.0525 175.582 40.6133 180 40.6133C184.418 40.6133 188 43.0525 188 46.0614C188 49.0703 184.418 51.5095 180 51.5095Z" fill="white"/>
<path d="M176.057 16.8396H165.943C162.661 16.8396 160 19.5006 160 22.783C160 26.0654 162.661 28.7264 165.943 28.7264H176.057C179.339 28.7264 182 26.0654 182 22.783C182 19.5006 179.339 16.8396 176.057 16.8396Z" fill="#9B1717"/>
<rect x="69" y="33" width="84" height="4" rx="2" fill="white"/>
<rect x="69" y="51" width="84" height="4" rx="2" fill="white"/>
<rect x="69" y="69" width="84" height="4" rx="2" fill="white"/>
</svg>
