<svg width="100" height="100" viewBox="0 0 100 100" fill="none" xmlns="http://www.w3.org/2000/svg">
<g clip-path="url(#clip0_21_41)">
<path d="M50 100C77.6142 100 100 77.6142 100 50C100 22.3858 77.6142 0 50 0C22.3858 0 0 22.3858 0 50C0 77.6142 22.3858 100 50 100Z" fill="#9B1717"/>
<path d="M44.4122 52.1814C53.9775 67.0422 69.824 74.6391 65.4122 77.4788C61.0004 80.3185 47.297 75.2336 37.7317 60.3728C28.1664 45.5119 27.0004 28.3186 31.4122 25.4789C35.824 22.6392 34.8469 37.3206 44.4122 52.1814Z" fill="white"/>
<path d="M29.9528 27.1057L43.4122 14.979L52.9122 34.9789L34.4696 42.455L29.9528 27.1057Z" fill="white"/>
<path d="M61.8564 78.4377L78.2171 70.6568L63.3884 54.2143L49.4122 68.3808L61.8564 78.4377Z" fill="white"/>
</g>
<defs>
<clipPath id="clip0_21_41">
<rect width="100" height="100" fill="white"/>
</clipPath>
</defs>
</svg>
